<svg id="ewZLakgqEcQ1" xmlns="http://www.w3.org/2000/svg" xmlns:xlink="http://www.w3.org/1999/xlink" viewBox="0 0 700 200" shape-rendering="geometricPrecision" text-rendering="geometricPrecision"><defs><linearGradient id="ewZLakgqEcQ4-fill" x1="97.7724" y1="3.60628" x2="155.207" y2="161.115" spreadMethod="pad" gradientUnits="userSpaceOnUse" gradientTransform="translate(0 0)"><stop id="ewZLakgqEcQ4-fill-0" offset="0%" stop-color="#fa6a28"/><stop id="ewZLakgqEcQ4-fill-1" offset="100%" stop-color="#d04504"/></linearGradient><linearGradient id="ewZLakgqEcQ7-fill" x1="95.3449" y1="-26.5056" x2="155.065" y2="129.184" spreadMethod="pad" gradientUnits="userSpaceOnUse" gradientTransform="translate(0 0)"><stop id="ewZLakgqEcQ7-fill-0" offset="0%" stop-color="#fa6a28"/><stop id="ewZLakgqEcQ7-fill-1" offset="100%" stop-color="#d04504"/></linearGradient><linearGradient id="ewZLakgqEcQ10-fill" x1="91.3739" y1="-26.5506" x2="152.058" y2="128.334" spreadMethod="pad" gradientUnits="userSpaceOnUse" gradientTransform="translate(0 0)"><stop id="ewZLakgqEcQ10-fill-0" offset="0%" stop-color="#fa6a28"/><stop id="ewZLakgqEcQ10-fill-1" offset="100%" stop-color="#d04504"/></linearGradient><linearGradient id="ewZLakgqEcQ13-fill" x1="90.9755" y1="-25.7075" x2="155.27" y2="125.94" spreadMethod="pad" gradientUnits="userSpaceOnUse" gradientTransform="translate(0 0)"><stop id="ewZLakgqEcQ13-fill-0" offset="0%" stop-color="#fa6a28"/><stop id="ewZLakgqEcQ13-fill-1" offset="100%" stop-color="#d04504"/></linearGradient><linearGradient id="ewZLakgqEcQ16-fill" x1="91.9465" y1="-26.6624" x2="155.171" y2="125.982" spreadMethod="pad" gradientUnits="userSpaceOnUse" gradientTransform="translate(0 0)"><stop id="ewZLakgqEcQ16-fill-0" offset="0%" stop-color="#fa6a28"/><stop id="ewZLakgqEcQ16-fill-1" offset="100%" stop-color="#d04504"/></linearGradient><linearGradient id="ewZLakgqEcQ19-fill" x1="90.9175" y1="3.38211" x2="153.102" y2="156.964" spreadMethod="pad" gradientUnits="userSpaceOnUse" gradientTransform="translate(0 0)"><stop id="ewZLakgqEcQ19-fill-0" offset="0%" stop-color="#fa6a28"/><stop id="ewZLakgqEcQ19-fill-1" offset="100%" stop-color="#d04504"/></linearGradient><linearGradient id="ewZLakgqEcQ22-fill" x1="73.041" y1="2.1408" x2="162.437" y2="110.153" spreadMethod="pad" gradientUnits="userSpaceOnUse" gradientTransform="translate(0 0)"><stop id="ewZLakgqEcQ22-fill-0" offset="0%" stop-color="#fa6a28"/><stop id="ewZLakgqEcQ22-fill-1" offset="100%" stop-color="#d04504"/></linearGradient></defs><g id="ewZLakgqEcQ2" transform="matrix(1.063238 0 0 1.063239 64.78478 15.84118)"><path d="M104.67,131.369c-3.686.161-7.5683.053-11.6472-.323-3.9828-.287-7.7933-.86-11.4316-1.717-3.6383-.856-6.916-1.914-9.8331-3.171-2.5405-1.09-4.3598-2.58-5.4579-4.471-1.1022-1.983-1.5633-4.087-1.3834-6.31.18-2.224.8788-4.194,2.0966-5.909c1.2138-1.807,2.8684-3.033,4.9638-3.679c2.0914-.737,4.4995-.565,7.2243.516c3.5743,1.506,7.5932,2.623,12.0569,3.352c4.4636.728,8.6307,1.008,12.5016.839c6.082-.265,10.287-1.234,12.614-2.905c2.416-1.767,3.572-3.849,3.467-6.245-.092-2.1195-1.042-3.7862-2.849-4.9999-1.715-1.2178-4.759-2.193-9.13-2.9255L91.5378,90.6705c-8.9273-1.457-15.6571-4.3949-20.1895-8.8136-4.5323-4.4187-6.9574-10.2682-7.2751-17.5485-.2091-4.792.5695-9.1655,2.3359-13.1205c1.8544-4.0511,4.5184-7.5374,7.9918-10.4589c3.5655-2.9255,7.8043-5.2341,12.7163-6.9257c5.0002-1.7878,10.5874-2.8165,16.7618-3.0859c4.792-.2091,9.654.1327,14.587,1.0254c5.02.7965,9.374,2.1762,13.061,4.1389c2.167,1.0133,3.754,2.4675,4.76,4.3626c1.006,1.895,1.463,3.9063,1.372,6.0339-.096,2.0355-.755,3.8647-1.977,5.4876-1.13,1.6189-2.742,2.7511-4.838,3.3965-2.007.5493-4.465.2872-7.374-.7861-2.725-1.0814-5.804-1.8242-9.238-2.2283-3.346-.5003-6.585-.6821-9.719-.5454-3.409.1488-6.2941.6902-8.6539,1.6242-2.3639.8418-4.1587,2.028-5.3845,3.5588-1.1337,1.5268-1.6583,3.2578-1.5738,5.193.0844,1.9353.9401,3.5599,2.5671,4.8739c1.7151,1.2177,4.7583,2.1929,9.1301,2.9254l16.185,2.7561c9.024,1.5452,15.844,4.4329,20.46,8.6633c4.617,4.2304,7.08,9.8936,7.39,16.9895.209,4.7923-.57,9.1653-2.336,13.1203-1.767,3.955-4.386,7.393-7.86,10.315-3.477,2.829-7.718,5.092-12.722,6.787-5.004,1.696-10.686,2.683-17.045,2.96Z" fill="#f54e00"/><path d="M93.0228,131.046l.0345-.374-.0074-.001-.0271.375Zm-21.2647-4.888l.1488-.346h-.0006l-.1482.346Zm-5.4579-4.471l-.3287.183.0035.006.3252-.189Zm-1.3834-6.31l.3748.03-.3748-.03Zm2.0966-5.909l.3067.218.0054-.008-.3121-.21Zm4.9638-3.679l.1107.36.0072-.003.0072-.002-.1251-.355Zm7.2243.516l.146-.347-.0073-.003-.1387.35Zm12.0569,3.352l.0605-.371-.0605.371Zm25.1156-2.066l.22.306.002-.002-.222-.304Zm.618-11.245l-.218.3067.008.0055.21-.3122Zm-9.13-2.9254l-.063.3707.001.0001.062-.3708Zm-16.3242-2.75l.0625-.3708-.0019-.0003-.0606.3711ZM71.3483,81.8569l.2625-.2692-.2625.2692Zm-4.9392-30.669l-.3419-.1565-.0014.0032.3433.1533ZM74.4009,40.729l-.2385-.2907-.0035.003.242.2877Zm12.7163-6.9257l.1225.3555.0041-.0015-.1266-.354Zm31.3488-2.0605l-.067.37.008.0013.059-.3713Zm13.061,4.1389l-.177.3319.008.0045.009.0042.16-.3406Zm4.76,4.3626l-.332.1763.332-.1763Zm1.372,6.0339l.375.0177v-.0015l-.375-.0162Zm-1.977,5.4876l-.3-.2263-.008.0112.308.2151Zm-4.838,3.3965l.1.3629.011-.0035-.111-.3594Zm-7.374-.7861l-.139.3496.009.0031.13-.3527Zm-9.238-2.2283l-.056.372.012.0014.044-.3734ZM95.8591,53.2267l.1262.3544.0122-.0048-.1384-.3496Zm-5.3845,3.5588l-.2937-.2351-.0082.011.3019.2241Zm.9933,10.0669l-.2363.2925.0091.0073.0095.0067.2177-.3065Zm9.1301,2.9254l.063-.3706-.001-.0002-.062.3708Zm16.185,2.7561l.064-.3706v-.0001l-.064.3707Zm25.514,38.7731l.343.154-.343-.154Zm-7.86,10.315l.237.292.005-.004-.242-.288Zm-12.722,6.787l.12.357-.12-.357Zm-17.061,2.584c-3.667.161-7.5329.054-11.5967-.321l-.069.749c4.094.377,7.9937.485,11.6987.324l-.033-.752Zm-11.6041-.322c-3.9642-.286-7.7549-.856-11.3725-1.708l-.1724.732c3.659.862,7.4893,1.437,11.4907,1.726l.0542-.75Zm-11.3725-1.708c-3.6205-.852-6.8767-1.903-9.7705-3.151l-.2977.691c2.9406,1.268,6.2397,2.331,9.8958,3.192l.1724-.732Zm-9.7711-3.151c-2.486-1.066-4.2331-2.509-5.281-4.314l-.6503.378c1.1484,1.977,3.04,3.514,5.6349,4.627l.2964-.691Zm-5.2775-4.308c-1.0668-1.919-1.5111-3.949-1.3372-6.097l-.7495-.061c-.1861,2.299.2918,4.477,1.4294,6.524l.6573-.366Zm-1.3372-6.097c.1748-2.161.8522-4.065,2.0284-5.721l-.6132-.435c-1.2593,1.773-1.9797,3.808-2.1647,6.095l.7495.061Zm2.0339-5.729c1.1654-1.735,2.7486-2.909,4.7624-3.529l-.2214-.719c-2.1771.67-3.9031,1.949-5.1652,3.829l.6242.419Zm4.7768-3.534c1.9813-.699,4.2925-.548,6.9605.51l.2774-.699c-2.7816-1.104-5.2866-1.297-7.488-.52l.2501.709Zm6.9532.507c3.6057,1.52,7.654,2.644,12.1423,3.377l.1211-.742c-4.439-.725-8.4286-1.835-11.9714-3.328l-.292.693Zm12.1423,3.377c4.485.732,8.6781,1.014,12.5782.844l-.033-.752c-3.8407.168-7.9817-.109-12.4241-.834l-.1211.742Zm12.5782.844c6.09-.266,10.394-1.235,12.818-2.975l-.439-.611c-2.231,1.602-6.337,2.569-12.412,2.834l.033.752Zm12.82-2.977c2.489-1.821,3.732-4.012,3.621-6.565l-.751.032c.097,2.239-.971,4.212-3.314,5.926l.444.607Zm3.621-6.565c-.098-2.2429-1.112-4.0178-3.016-5.2961l-.419.6243c1.711,1.1492,2.597,2.7076,2.684,4.7038l.751-.032Zm-3.008-5.2905c-1.789-1.2707-4.906-2.256-9.285-2.9897l-.124.7416c4.364.7313,7.333,1.6963,8.974,2.8612l.435-.6131Zm-9.285-2.9897l-16.3237-2.75-.125.7415l16.3237,2.75.125-.7415ZM91.5984,90.2995c-8.8826-1.4498-15.5296-4.3656-19.9876-8.7118l-.525.5384c4.6067,4.4912,11.4194,7.4512,20.3914,8.9155l.1212-.7421ZM71.6108,81.5877c-4.4535-4.3418-6.8477-10.0955-7.1619-17.2956l-.7513.0327c.3212,7.3604,2.777,13.3057,7.3882,17.8013l.525-.5384ZM64.4489,64.2921c-.2069-4.7401.5634-9.0547,2.3035-12.9508l-.6866-.3067c-1.7927,4.0138-2.5796,8.4462-2.3682,13.2902l.7513-.0327Zm2.302-12.9477c1.8309-3.9995,4.4604-7.4413,7.892-10.3277l-.484-.5754c-3.5152,2.9566-6.2136,6.4874-8.0917,10.5901l.6837.313Zm7.8885-10.3247c3.5269-2.8939,7.7252-5.182,12.6003-6.8609l-.2449-.711c-4.949,1.7043-9.2283,4.0333-12.8324,6.9905l.477.5814Zm12.6044-6.8624c4.9595-1.7733,10.5088-2.7962,16.6512-3.0643l-.032-.7512c-6.2063.2708-11.8315,1.3051-16.8724,3.1074l.2532.7081ZM103.895,31.093c4.763-.2078,9.598.1318,14.504,1.0198l.134-.74c-4.959-.8975-9.849-1.2414-14.67-1.031l.032.7512Zm14.512,1.0211c4.988.7914,9.3,2.1601,12.943,4.0995l.353-.6638c-3.73-1.9861-8.125-3.3767-13.178-4.1784l-.118.7427Zm12.96,4.1082c2.103.983,3.625,2.3836,4.588,4.1983l.664-.3526c-1.048-1.9754-2.7-3.4832-4.933-4.5269l-.319.6812Zm4.588,4.1983c.975,1.8363,1.417,3.7812,1.328,5.8414l.751.0324c.095-2.195-.378-4.2727-1.415-6.2264l-.664.3526Zm1.328,5.8399c-.092,1.9603-.725,3.7168-1.901,5.2792l.6.4523c1.268-1.6835,1.953-3.5854,2.052-5.6961l-.751-.0354Zm-1.909,5.2902c-1.077,1.5425-2.616,2.6287-4.64,3.2523l.221.7187c2.166-.6673,3.852-1.8454,5.035-3.5407l-.616-.4303Zm-4.629,3.249c-1.903.5206-4.275.2825-7.145-.7763l-.26.7055c2.948,1.0879,5.492,1.3739,7.604.7961l-.199-.7253Zm-7.136-.773c-2.76-1.0954-5.872-1.8449-9.333-2.2522l-.088.7468c3.407.401,6.454,1.137,9.143,2.2043l.278-.6989Zm-9.321-2.2507c-3.368-.5036-6.632-.687-9.791-.5491l.033.7513c3.107-.1356,6.323.0445,9.646.5415l.112-.7437Zm-9.791-.5491c-3.438.15-6.3667.6965-8.7763,1.6501l.2768.6993c2.31-.9143,5.1505-1.4506,8.5325-1.5981l-.033-.7513Zm-8.764,1.6456c-2.4115.8587-4.2718,2.0794-5.5519,3.678l.587.47c1.1715-1.4629,2.9009-2.6148,5.2171-3.4396l-.2522-.7084Zm-5.5603,3.6889c-1.1862,1.5975-1.7357,3.4138-1.6476,5.4335l.7513-.0327c-.0808-1.8508.4189-3.4965,1.5-4.9525l-.6037-.4483Zm-1.6476,5.4335c.0896,2.0524,1.0032,3.7743,2.7065,5.15l.4725-.5851c-1.5506-1.2522-2.3484-2.7795-2.4277-4.5976l-.7513.0327Zm2.7251,5.164c1.7895,1.2707,4.9066,2.256,9.2858,2.9897l.124-.7416c-4.3643-.7313-7.3338-1.6963-8.9745-2.8612l-.4353.6131Zm9.2848,2.9896l16.185,2.756.127-.7413-16.186-2.756-.126.7413Zm16.185,2.756c8.983,1.5383,15.725,4.406,20.269,8.5699l.508-.5544c-4.689-4.2968-11.586-7.2047-20.65-8.7567l-.127.7412Zm20.269,8.5699c4.533,4.1538,6.962,9.7178,7.268,16.7287l.751-.0328c-.313-7.1809-2.81-12.9432-7.511-17.2503l-.508.5544Zm7.268,16.7287c.207,4.7399-.563,9.0549-2.304,12.9509l.687.307c1.793-4.014,2.58-8.447,2.368-13.2907l-.751.0328Zm-2.304,12.9509c-1.742,3.901-4.326,7.293-7.758,10.18l.484.576c3.515-2.957,6.17-6.44,7.961-10.449l-.687-.307ZM134.2,121.33c-3.437,2.797-7.637,5.04-12.606,6.723l.241.713c5.04-1.708,9.322-3.99,12.839-6.852l-.474-.584Zm-12.606,6.723c-4.964,1.683-10.61,2.664-16.94,2.94l.033.752c6.387-.279,12.105-1.27,17.148-2.979l-.241-.713Z" fill="url(#ewZLakgqEcQ4-fill)"/></g><g id="ewZLakgqEcQ5" transform="matrix(1.033687 0 0 1.033684 144.337421 47.042611)"><path d="M126.694,124.842c-3.962.173-7.05-.754-9.262-2.781s-3.406-5.068-3.583-9.123l-1.098-25.1578l1.52-.0664c-1.213,3.9308-3.795,7.1827-7.745,9.7557-3.95,2.5725-8.4598,3.9705-13.5283,4.1915-5.8058.253-11.0288-.95-15.669-3.6098-4.5481-2.6638-8.229-6.6119-11.0426-11.8443-2.7214-5.2364-4.241-11.4947-4.5587-18.7749-.3257-7.4646.6409-13.8775,2.8998-19.2389c2.3511-5.3655,5.6761-9.5731,9.9749-12.623c4.3909-3.0538,9.4892-4.7074,15.295-4.9608c5.2528-.2292,9.9629.8579,14.1299,3.2613c4.256,2.3072,7.119,5.5061,8.59,9.5968l-1.224,6.8397-.35-8.0174c-.173-3.9627.754-7.0501,2.781-9.2621s4.976-3.4026,8.846-3.5715c3.963-.1729,7.004.7562,9.124,2.7873c2.212,2.027,3.405,5.0219,3.578,8.9846l3.082,70.637c.177,4.055-.794,7.19-2.913,9.406-2.027,2.212-4.976,3.403-8.847,3.571ZM100.087,83.2085c2.488-.1086,4.673-.8041,6.556-2.0866c1.879-1.3746,3.271-3.3281,4.177-5.8606.993-2.6286,1.401-5.9703,1.224-10.0251-.269-6.1744-1.66-10.5455-4.173-13.1134-2.517-2.6601-5.618-3.9097-9.3044-3.7489-2.4882.1086-4.6738.8041-6.5568,2.0866s-3.3211,3.238-4.3143,5.8666c-.9973,2.5364-1.4055,5.8781-1.2245,10.0251.2654,6.0822,1.6565,10.4534,4.1732,13.1135c2.5166,2.6601,5.6641,3.9077,9.4428,3.7428Z" fill="#f54e00"/><path d="M117.432,122.061l.254-.277-.254.277Zm-4.681-34.2808l-.017-.3757-.375.0164.016.3756.376-.0163Zm1.52-.0664l.36.1109.157-.5098-.533.0233.016.3756Zm-7.745,9.7557l-.205-.315.205.315Zm-29.1973.5817l-.1901.3244.0031.0018.187-.3262ZM66.2861,86.2069l-.3336.1734.0025.0047.3311-.1781ZM64.6272,48.193l-.3444-.1509-.0021.005.3465.1459Zm9.9749-12.6229l-.2147-.3086-.0029.002.2176.3066Zm29.4249-1.6995l-.187.3258.008.0047.179-.3305Zm8.59,9.5968l.371.0663.017-.099-.034-.0946-.354.1273Zm-1.224,6.8397l-.376.0164.746.0499-.37-.0663Zm2.431-17.2795l.277.254-.277-.254Zm17.97-.7842l-.26.2715.006.0057.254-.2772Zm3.747,89.0276l-.272-.26-.006.006.278.254ZM106.643,81.1219l.212.3109.01-.0074-.222-.3035Zm4.177-5.8606l-.352-.1329-.003.0064.355.1265Zm-2.949-23.1385l-.273.2584.004.0045.269-.2629ZM92.0098,50.4605l-.2116-.3108.2116.3108Zm-4.3143,5.8666l.3499.1376.0018-.0047-.3517-.1329Zm2.9487,23.1386l-.2732.2584.2732-.2584ZM126.678,124.467c-3.896.17-6.875-.743-8.992-2.683l-.508.554c2.307,2.114,5.504,3.056,9.533,2.88l-.033-.751Zm-8.992-2.683c-2.115-1.939-3.288-4.871-3.462-8.862l-.751.033c.18,4.118,1.397,7.268,3.705,9.383l.508-.554Zm-3.462-8.862l-1.098-25.1582-.751.0327l1.098,25.1585.751-.033Zm-1.457-24.7662l1.521-.0664-.033-.7512-1.521.0663.033.7513Zm1.145-.5529c-1.184,3.8348-3.703,7.0191-7.591,9.5516l.41.6301c4.013-2.6136,6.657-5.933,7.9-9.9599l-.719-.2218Zm-7.591,9.5516c-3.89,2.5334-8.3331,3.9125-13.3397,4.1305l.0328.751c5.1304-.224,9.7059-1.639,13.7169-4.2514l-.41-.6301ZM92.9813,101.285c-5.7411.251-10.8925-.939-15.4657-3.56l-.3739.6524c4.7073,2.6986,10.0019,3.9156,15.8724,3.6586l-.0328-.751ZM77.5187,97.7267c-4.4812-2.6246-8.1163-6.5183-10.9014-11.6978l-.6623.3561c2.842,5.2853,6.5686,9.2876,11.1836,11.9906l.3801-.6489ZM66.6197,86.0336c-2.6909-5.1778-4.2008-11.38-4.5166-18.618l-.7513.0328c.3195,7.3224,1.8488,13.6368,4.6007,18.9319l.6672-.3467Zm-4.5166-18.618c-.324-7.4242.6385-13.7789,2.8706-19.0766l-.693-.2919c-2.2858,5.4251-3.2564,11.8964-2.9289,19.4013l.7513-.0328ZM64.9716,48.344c2.3269-5.3102,5.6109-9.4611,9.848-12.4672l-.4351-.6133c-4.3604,3.0936-7.7263,7.3579-10.1016,12.7786l.6887.3019Zm9.8451-12.4652c4.3275-3.0097,9.3557-4.6433,15.0968-4.8938l-.0328-.7513c-5.8705.2562-11.0389,1.9298-15.4933,5.0278l.4293.6173ZM89.9135,30.985c5.1883-.2265,9.8264.8469,13.9265,3.2113l.375-.6514c-4.2348-2.4425-9.0169-3.5433-14.3343-3.3112l.0328.7513Zm13.9345,3.2161c4.185,2.2686,6.979,5.3998,8.416,9.3935l.707-.2545c-1.506-4.1876-4.438-7.4542-8.764-9.8001l-.359.6611Zm8.399,9.2l-1.225,6.8398.741.1325l1.225-6.8397-.741-.1326Zm-.479,6.8896l-.35-8.0174-.751.0327.35,8.0175.751-.0328Zm-.35-8.0174c-.17-3.8963.743-6.8745,2.683-8.9917l-.554-.508c-2.114,2.3069-3.056,5.5034-2.88,9.5324l.751-.0327Zm2.683-8.9917c1.942-2.1188,4.784-3.284,8.586-3.4498l-.033-.7513c-3.94.1719-6.995,1.3878-9.107,3.6931l.554.508Zm8.586-3.4498c3.897-.1701,6.824.7452,8.847,2.6831l.52-.543c-2.217-2.1243-5.372-3.0672-9.4-2.8914l.033.7513Zm8.853,2.6888c2.117,1.9401,3.286,4.8275,3.456,8.7238l.751-.0328c-.176-4.0291-1.392-7.1314-3.699-9.2454l-.508.5544Zm3.456,8.7238l3.082,70.6366.752-.033-3.083-70.6364-.751.0328Zm3.082,70.6366c.174,3.987-.782,7.01-2.809,9.13l.543.52c2.211-2.312,3.198-5.56,3.018-9.683l-.752.033Zm-2.815,9.136c-1.941,2.119-4.784,3.284-8.585,3.45l.033.751c3.939-.172,6.994-1.388,9.107-3.693l-.555-.508Zm-35.16-37.4329c2.551-.1113,4.806-.826,6.752-2.1514l-.423-.6216c-1.82,1.2395-3.937,1.9159-6.362,2.0217l.033.7513Zm6.762-2.1587c1.949-1.4257,3.382-3.4456,4.309-6.0375l-.709-.2531c-.883,2.4729-2.234,4.36-4.044,5.6836l.444.607Zm4.306-6.0312c1.018-2.6924,1.427-6.0895,1.249-10.1744l-.752.0328c.176,4.0248-.231,7.3111-1.2,9.8758l.703.2658Zm1.249-10.1744c-.271-6.2057-1.67-10.6923-4.28-13.36l-.538.5259c2.415,2.4682,3.798,6.7239,4.066,12.8669l.752-.0328Zm-4.276-13.3554c-2.592-2.74-5.8-4.0317-9.5938-3.8661l.0327.7513c3.5781-.1562,6.5741,1.0514,9.0151,3.6316l.546-.5168Zm-9.5938-3.8661c-2.5513.1113-4.8059.826-6.752,2.1514l.4233.6215c1.8198-1.2394,3.9364-1.9158,6.3614-2.0216l-.0327-.7513Zm-6.752,2.1514c-1.9604,1.3352-3.4403,3.3607-4.4544,6.0445l.7034.2658c.9724-2.5734,2.3687-4.459,4.1743-5.6888l-.4233-.6215Zm-4.4526,6.0398c-1.024,2.6042-1.4324,6.0044-1.2502,10.1791l.7512-.0328c-.1797-4.1192.2282-7.4024,1.1988-9.8711l-.6998-.2752ZM86.0954,66.3686c.2669,6.117,1.667,10.5982,4.2756,13.3555l.5463-.5168c-2.4248-2.5629-3.8068-6.8241-4.0707-12.8715l-.7512.0328ZM90.371,79.7241c2.5944,2.7422,5.8489,4.0295,9.732,3.86l-.033-.7513c-3.6732.1603-6.7138-1.0476-9.1527-3.6255l-.5463.5168Z" fill="url(#ewZLakgqEcQ7-fill)"/></g><g id="ewZLakgqEcQ8" transform="matrix(1.032085 0.010617-.010617 1.032087 219.868011 42.982757)"><path d="M89.2427,101.606c-5.8979.258-10.7823-.591-14.6531-2.5457-3.8749-2.0468-6.8745-5.1936-8.9987-9.4405-2.0321-4.2508-3.193-9.6938-3.4825-16.329L60.8416,44.2621c-.177-4.0549.7501-7.1422,2.7812-9.2621c2.0271-2.2121,5.0219-3.4046,8.9846-3.5775c3.9626-.1729,7.05.7541,9.2621,2.7812c2.208,1.9349,3.4005,4.9298,3.5774,8.9846l1.297,29.72c.1448,3.3175.9445,5.7756,2.3992,7.374s3.6566,2.3334,6.6055,2.2047c3.3176-.1448,5.9834-1.4614,7.9984-3.95s2.937-5.7141,2.764-9.6767l-1.159-26.5407c-.177-4.0548.751-7.1421,2.782-9.262c2.027-2.2121,5.022-3.4046,8.984-3.5775c3.963-.1729,7.05.7541,9.262,2.7812c2.208,1.9349,3.401,4.9298,3.578,8.9846l1.996,45.7549c.362,8.2939-3.419,12.6138-11.345,12.9597-3.87.1685-6.911-.7602-9.123-2.7873-2.213-2.027-3.407-5.068-3.584-9.1228l-.35-8.0175l2.507,6.6769c-1.83,4.6041-4.536,8.1846-8.118,10.7414-3.489,2.5528-7.7219,3.9378-12.6983,4.1548Z" fill="#f54e00"/><path d="M74.5896,99.0603l-.1757.3326.0062.0031.1695-.3357Zm-8.9987-9.4405l-.3393.1622.003.006.3363-.1682ZM63.6228,35l.2716.2602.0056-.0062L63.6228,35Zm18.2467-.7963l-.2541.2773.0063.0055.2478-.2828Zm7.2736,46.0786l.2781-.253-.2781.253ZM103.747,78.537l-.292-.2366.292.2366Zm4.387-45.4794l.271.2602.006-.0062-.277-.254Zm18.246-.7963l-.254.2773.006.0055.248-.2828Zm-14.894,64.912l.254-.2773-.254.2773Zm-3.934-17.1404l.352-.1321-.727.1485.375-.0164Zm2.507,6.6769l.35.1389.054-.135-.052-.1361-.352.1322Zm-8.118,10.7415l-.218-.3061-.004.0026.222.3035ZM89.2263,101.231c-5.8558.255-10.671-.589-14.4673-2.5063l-.3389.6713c3.9454,1.992,8.899,2.845,14.839,2.586l-.0328-.751ZM74.7652,98.7279c-3.7996-2.0071-6.7458-5.0934-8.8381-9.2763l-.6725.3364c2.1563,4.3109,5.2092,7.5182,9.1593,9.6048l.3513-.6649Zm-8.8351-9.2702c-2.0033-4.1906-3.1579-9.5794-3.4461-16.1832l-.7513.0327c.291,6.6665,1.458,12.1637,3.5189,16.4748l.6785-.3243ZM62.484,73.2745L61.2172,44.2457l-.7512.0327l1.2667,29.0288.7513-.0327ZM61.2172,44.2457c-.1742-3.9926.7407-6.9646,2.6771-8.9856l-.543-.5202c-2.1258,2.2187-3.065,5.4215-2.8853,9.5385l.7512-.0327ZM63.9,35.254c1.9401-2.1172,4.8275-3.2858,8.7238-3.4559l-.0328-.7512c-4.0291.1758-7.1314,1.3921-9.2454,3.6991l.5544.508Zm8.7238-3.4559c3.8963-.17,6.8745.7427,8.9916,2.6828l.5081-.5544c-2.3069-2.114-5.5035-3.0555-9.5325-2.8796l.0328.7512Zm8.9979,2.6884c2.105,1.8447,3.2754,4.7256,3.4496,8.7182l.7513-.0328c-.1797-4.1171-1.3943-7.2258-3.7053-9.251l-.4956.5656Zm3.4496,8.7182l1.297,29.7199.7512-.0327-1.2969-29.72-.7513.0328Zm1.297,29.7199c.1466,3.3605.9583,5.9203,2.4967,7.6108l.5562-.5061c-1.371-1.5065-2.1588-3.8628-2.3017-7.1374l-.7512.0327Zm2.4967,7.6108c1.5547,1.7083,3.8826,2.4589,6.9,2.3272l-.0328-.7513c-2.8805.1258-4.9562-.5934-6.311-2.082l-.5562.5061Zm6.9,2.3272c3.4206-.1493,6.189-1.5133,8.275-4.089l-.585-.4732c-1.944,2.4014-4.5083,3.6707-7.7228,3.8109l.0328.7513Zm8.275-4.089c2.085-2.5757,3.022-5.8982,2.846-9.9297l-.751.0328c.17,3.8937-.735,7.0225-2.68,9.4237l.585.4732Zm2.846-9.9297l-1.158-26.5406-.751.0327l1.158,26.5407.751-.0328Zm-1.158-26.5406c-.174-3.9926.741-6.9646,2.677-8.9856l-.543-.5202c-2.126,2.2187-3.065,5.4215-2.885,9.5385l.751-.0327Zm2.683-8.9917c1.94-2.1172,4.827-3.2858,8.724-3.4559l-.033-.7512c-4.029.1758-7.132,1.3921-9.246,3.6991l.555.508Zm8.724-3.4559c3.896-.17,6.874.7427,8.991,2.6828l.508-.5544c-2.307-2.114-5.503-3.0555-9.532-2.8796l.033.7512Zm8.997,2.6884c2.106,1.8447,3.276,4.7256,3.45,8.7182l.751-.0328c-.179-4.1171-1.394-7.2258-3.705-9.251l-.496.5656Zm3.45,8.7182l1.997,45.7549.751-.0328-1.997-45.7549-.751.0328Zm1.997,45.7549c.178,4.0932-.669,7.1361-2.472,9.1963-1.801,2.0569-4.614,3.2012-8.514,3.3714l.033.7511c4.025-.176,7.065-1.3642,9.047-3.6272c1.978-2.2596,2.84-5.5237,2.657-9.7244l-.751.0328ZM120.593,99.5849c-3.801.1658-6.735-.7472-8.853-2.6889l-.508.5544c2.305,2.1125,5.454,3.0576,9.394,2.8856l-.033-.7511ZM111.74,96.896c-2.116-1.9386-3.288-4.8707-3.462-8.862l-.752.0328c.18,4.1183,1.397,7.2682,3.706,9.3836l.508-.5544Zm-3.462-8.862l-.35-8.0174-.751.0327.349,8.0175.752-.0328ZM107.2,80.1651l2.507,6.6769.704-.2644-2.507-6.6768-.704.2643Zm2.51,6.4058c-1.807,4.5457-4.471,8.0646-7.987,10.5743l.437.6121c3.648-2.604,6.395-6.2461,8.249-10.9086l-.699-.2778Zm-7.991,10.5769c-3.4204,2.5026-7.5789,3.8682-12.4927,4.0832l.0328.751c5.0389-.22,9.3463-1.624,12.9039-4.2273l-.444-.6069Z" fill="url(#ewZLakgqEcQ10-fill)"/></g><g id="ewZLakgqEcQ11" transform="matrix(1.041681 0 0 1.041681 284.656988 40.576114)"><path d="M103.53,101.809c-8.2941.361-15.5445-.753-21.7514-3.3446-6.1187-2.6876-10.9074-6.6335-14.3661-11.8377s-5.3469-11.4464-5.6646-18.7267c-.3056-7.0038.9475-13.1984,3.7594-18.584c2.9-5.4817,6.9582-9.8136,12.1745-12.9958c5.3044-3.2784,11.4124-5.0684,18.324-5.37c5.0682-.2212,9.7122.4071,13.9322,1.8849c4.215,1.3857,7.865,3.5808,10.951,6.5854c3.082,2.9124,5.454,6.5021,7.118,10.769c1.756,4.2629,2.75,9.0669,2.983,14.4119.081,1.8431-.366,3.2475-1.339,4.2133-.978.8736-2.572,1.3587-4.784,1.4552L82.5677,72.1158L82.061,60.5043l30.688-1.3392-2.134,1.8935c-.148-3.4097-.73-6.1542-1.744-8.2336s-2.467-3.6317-4.358-4.6571c-1.799-1.0295-4.035-1.4859-6.7076-1.3693-2.8568.1247-5.3148.9244-7.3741,2.3993-1.9711,1.3786-3.4532,3.3822-4.4465,6.0108s-1.4054,5.8782-1.2365,9.7487l.0543,1.2441c.2855,6.543,1.919,11.1805,4.9005,13.9127c3.0696,2.6359,7.6455,3.8212,13.7279,3.5558c2.027-.0885,4.321-.4194,6.881-.9928c2.649-.6696,5.151-1.5174,7.507-2.5435c2.355-1.0261,4.423-1.2548,6.202-.6862c1.775.4766,3.155,1.4319,4.141,2.8662c1.074,1.3381,1.698,2.9267,1.87,4.7658.169,1.7469-.169,3.5159-1.015,5.3071-.849,1.699-2.313,3.0555-4.392,4.0695-3.161,1.6153-6.569,2.8719-10.223,3.7699-3.562.894-7.186,1.422-10.872,1.583Z" fill="#f54e00"/><path d="M81.7786,98.4644l-.1512.3443.0064.0027.1448-.347ZM67.4125,86.6267l-.3132.2081.3132-.2081ZM65.5073,49.316l-.3324-.1758-.0009.0018.3333.174ZM77.6818,36.3202l.1958.3209.0018-.0011-.1976-.3198Zm32.2562-3.4851l-.125.3549.007.0023.118-.3572Zm10.951,6.5854l-.262.2694.004.0038.258-.2732Zm7.118,10.769l-.35.1366.002.0066.348-.1432Zm1.644,18.6252l.25.2803.008-.0065.006-.0069-.264-.2669ZM82.5677,72.1158l-.3756.0164.0164.3756.3756-.0164-.0164-.3756ZM82.061,60.5043l-.0164-.3756-.3756.0163.0164.3757.3756-.0164Zm30.688-1.3392l.249.2812.792-.703-1.058.0462.017.3756Zm-2.134,1.8935l-.375.0164.034.7892.591-.5244-.25-.2812Zm-6.102-12.8907l-.187.3264.008.0041.179-.3305Zm-14.0817,1.03l.2156.3081.0034-.0025-.219-.3056Zm-4.4465,6.0108l-.3517-.1329.3517.1329Zm3.7183,24.9055l-.2542.2773.0092.0079.245-.2852Zm20.6089,2.563l.082.367.01-.0025-.092-.3645Zm7.507-2.5435l.15.3447-.15-.3447Zm6.202-.6862l-.115.3582.009.0027.008.0023.098-.3632Zm4.141,2.8662l-.31.213.008.0115.009.0109.293-.2354Zm1.87,4.7658l-.374.0351v.001l.374-.0361Zm-1.015,5.3071l.337.1681.003-.0077-.34-.1604Zm-4.392,4.0695l-.165-.338-.006.0032.171.3348Zm-10.223,3.7699l-.09-.365-.002.0005.092.3645Zm-10.889,1.207c-8.2509.36-15.4441-.75-21.5895-3.3156l-.2897.694c6.2684,2.6166,13.576,3.7366,21.9122,3.3726l-.033-.751ZM81.9298,98.1202c-6.0576-2.6608-10.7881-6.5615-14.2042-11.7016l-.6263.4162c3.5013,5.2684,8.3483,9.2594,14.5281,11.9738l.3024-.6884ZM67.7256,86.4186c-3.4148-5.1383-5.2868-11.3116-5.602-18.535l-.7513.0328c.3202,7.3371,2.2246,13.6483,5.727,18.9184l.6263-.4162Zm-5.602-18.535c-.3032-6.948.9402-13.0751,3.717-18.3935l-.6666-.3481c-2.8469,5.4527-4.1098,11.7149-3.8017,18.7744l.7513-.0328Zm3.716-18.3917c2.8689-5.4229,6.8803-9.7043,12.038-12.8508l-.3917-.6419c-5.2749,3.218-9.3798,7.6005-12.311,13.141l.6647.3517ZM77.8794,36.64c5.244-3.241,11.2882-5.0151,18.1428-5.3142l-.0328-.7513c-6.9686.3041-13.1404,2.1101-18.5053,5.4258l.3953.6397Zm18.1428-5.3142c5.0268-.2194,9.6228.4041,13.7908,1.8642l.249-.7097c-4.27-1.4956-8.963-2.1288-14.0726-1.9058l.0328.7513ZM109.82,33.1923c4.163,1.3684,7.763,3.5341,10.807,6.4976l.524-.5388c-3.127-3.0457-6.828-5.2702-11.096-6.6732l-.235.7144Zm10.811,6.5014c3.038,2.8713,5.381,6.413,7.026,10.6324l.7-.2731c-1.682-4.3146-4.084-7.9522-7.21-10.9058l-.516.5465Zm7.028,10.639c1.737,4.2167,2.724,8.9768,2.956,14.2851l.751-.0328c-.235-5.3817-1.237-10.2295-3.011-14.5387l-.696.2864Zm2.956,14.2851c.077,1.7754-.354,3.062-1.229,3.93l.529.5338c1.073-1.0636,1.534-2.5859,1.451-4.4966l-.751.0328ZM129.4,68.5343c-.881.7877-2.37,1.2649-4.55,1.36l.033.7512c2.244-.0979,3.944-.5908,5.018-1.5505l-.501-.5607Zm-4.55,1.36L82.5513,71.7402l.0328.7512l42.2989-1.8459-.033-.7512ZM82.9434,72.0994l-.5067-11.6115-.7513.0328.5067,11.6115.7513-.0328Zm-.866-11.2195l30.6876-1.3392-.033-.7512-30.6874,1.3392.0328.7512Zm30.4216-1.996l-2.133,1.8935.499.5624l2.133-1.8935-.499-.5624Zm-1.508,2.1584c-.15-3.4389-.737-6.2398-1.782-8.3821l-.676.3296c.983,2.0164,1.559,4.7047,1.707,8.0852l.751-.0327Zm-1.782-8.3821c-1.046-2.1442-2.551-3.7572-4.517-4.8229l-.358.6611c1.817.9852,3.217,2.4769,4.199,4.4914l.676-.3296ZM104.7,47.8415c-1.877-1.0736-4.188-1.5373-6.911-1.4185l.0328.7513c2.6222-.1145,4.7822.3347,6.5042,1.3199l.374-.6527ZM97.789,46.423c-2.92.1274-5.4506.9466-7.5766,2.4692l.4379.6113c1.9925-1.427,4.3779-2.2073,7.1715-2.3292l-.0328-.7513Zm-7.5732,2.4668c-2.043,1.4289-3.5673,3.4989-4.5827,6.186l.7034.2658c.9711-2.57,2.4111-4.5073,4.3103-5.8356l-.431-.6162Zm-4.5827,6.186c-1.0167,2.6906-1.4308,5.9946-1.2605,9.898l.7513-.0328c-.1675-3.8377.2428-7.0328,1.2126-9.5994l-.7034-.2658Zm-1.2605,9.898l.0543,1.2441.7513-.0328-.0543-1.2441-.7513.0328Zm.0543,1.2441c.2873,6.5835,1.9328,11.3424,5.0221,14.1735l.5081-.5544c-2.8736-2.6333-4.4951-7.1495-4.7789-13.6519l-.7513.0328Zm5.0312,14.1815c3.1713,2.7233,7.8585,3.9137,13.9889,3.6462l-.033-.7513c-6.0335.2633-10.4981-.9168-13.466-3.4654l-.4899.5705Zm13.9889,3.6462c2.055-.0897,4.371-.4246,6.947-1.0015l-.164-.7338c-2.544.5698-4.816.8967-6.816.984l.033.7513Zm6.957-1.0039c2.667-.6743,5.189-1.5285,7.565-2.5633l-.301-.6894c-2.336,1.0174-4.818,1.8588-7.448,2.5237l.184.729Zm7.565-2.5633c2.303-1.0034,4.273-1.2047,5.937-.6727l.229-.7163c-1.894-.6054-4.059-.3492-6.467.6996l.301.6894Zm5.954-.6677c1.694.4547,2.997,1.3598,3.929,2.716l.62-.426c-1.039-1.5123-2.497-2.518-4.354-3.0163l-.195.7263Zm3.946,2.7384c1.025,1.2763,1.623,2.7938,1.789,4.5655l.749-.0703c-.179-1.9064-.828-3.5661-1.951-4.9659l-.587.4707Zm1.789,4.5665c.161,1.6711-.161,3.3726-.981,5.1105l.68.3209c.871-1.8443,1.225-3.681,1.049-5.5037l-.748.0723Zm-.977,5.1029c-.805,1.6101-2.2,2.9138-4.221,3.8997l.329.6759c2.137-1.0422,3.671-2.4515,4.565-4.2394l-.673-.3362Zm-4.227,3.9028c-3.134,1.6013-6.514,2.8481-10.142,3.7397l.18.73c3.68-.9044,7.115-2.1708,10.304-3.8l-.342-.6697ZM114.31,99.8615c-3.537.8875-7.136,1.4115-10.797,1.5715l.033.751c3.712-.162,7.361-.693,10.948-1.593l-.184-.7295Z" fill="url(#ewZLakgqEcQ13-fill)"/></g><g id="ewZLakgqEcQ14" transform="matrix(1.023844 0.008099-.008099 1.023844 348.591288 39.53962)"><path d="M90.1754,101.479c-5.2528.229-9.9488-.536-14.0881-2.2939-4.0471-1.7623-7.295-4.252-9.7437-7.469-2.3605-3.3132-3.6352-7.1355-3.8242-11.4668-.2172-4.9763.902-8.9492,3.3577-11.9186s6.5142-5.1778,12.1755-6.6252c5.6573-1.5395,13.2319-2.5163,22.7234-2.9305l7.603-.3318.507,11.6115-7.603.3318c-3.5938.1568-6.5768.564-8.9487,1.2215-2.2838.5613-3.9545,1.419-5.0121,2.5731-1.0616,1.062-1.5562,2.4224-1.4838,4.0811.0925,2.1196.9061,3.8384,2.4409,5.1564c1.627,1.3139,3.8689,1.9086,6.7257,1.7839c2.3039-.1005,4.3091-.6959,6.016-1.786c1.799-1.0941,3.213-2.5408,4.242-4.34c1.026-1.8913,1.486-4.035,1.382-6.4311l-.7-16.0349c-.145-3.3176-1.123-5.6293-2.934-6.9353-1.719-1.3099-4.6523-1.8744-8.7993-1.6934-2.2117.0965-4.6879.4816-7.4284,1.1551-2.7445.5815-5.7935,1.5917-9.1469,3.0306-2.448,1.0301-4.5615,1.2609-6.3406.6922s-3.2097-1.6142-4.2918-3.1366c-.9899-1.5264-1.525-3.2112-1.6055-5.0543.0117-1.8471.5343-3.6242,1.5678-5.3312c1.1256-1.7111,2.8664-3.0797,5.2222-4.1058c4.351-1.8518,8.3576-3.1346,12.0196-3.8484c3.7543-.7178,7.198-1.1451,10.3313-1.2818c7.5566-.3298,13.8256.5046,18.8066,2.5032c5.068,1.9024,8.899,5.0591,11.492,9.4701c2.682,4.3149,4.175,9.9742,4.481,16.978l1.218,27.9229c.177,4.0548-.656,7.1842-2.498,9.3882-1.843,2.2041-4.608,3.3865-8.294,3.5474-3.778.1646-6.727-.7683-8.847-2.7994-2.028-2.0351-3.13-5.08-3.307-9.1348l-.157-3.5941.914,1.8991c-.332,2.969-1.282,5.5495-2.848,7.7415-1.566,2.1919-3.659,3.9452-6.2797,5.2599-2.6202,1.3144-5.6351,2.0464-9.0449,2.1954Z" fill="#f54e00"/><path d="M76.0873,99.1851l-.1501.3448.0031.0013.147-.3461Zm-9.7437-7.469l-.3063.2182.0072.0095.2991-.2277Zm-.4665-23.3854l.2898.2396-.2898-.2396Zm12.1755-6.6252l.0931.3644.0056-.0016-.0987-.3628Zm30.3264-3.2623l.376-.0164-.016-.3756-.376.0164.016.3756Zm.507,11.6115l.016.3756.376-.0164-.016-.3756-.376.0164ZM92.3343,71.608l.0898.3652.0106-.0029-.1004-.3623Zm-5.0121,2.5731l.266.2658.0057-.0057.0056-.0061-.2773-.254Zm.9571,9.2375l-.245.2853.0088.0072.2362-.2925Zm12.7417-.0021l-.196-.3213-.007.0044.203.3169Zm4.242-4.34l.327.1868.004-.0076-.331-.1792Zm-2.252-29.4013l-.228.2992.008.0058.22-.305Zm-16.2277-.5383l.078.368.0118-.0028-.0898-.3652Zm-9.1469,3.0306l.1458.3466.0024-.0011-.1482-.3455ZM67.004,49.7231l-.3154.2046.0043.0067.0047.0065.3064-.2178Zm-1.6055-5.0543l-.376-.0024v.0094l.0004.0094.3756-.0164Zm1.5678-5.3312l-.3143-.2068-.0073.012.3216.1948Zm5.2222-4.1058l-.1473-.346-.0029.0013.1502.3447Zm12.0196-3.8484l-.0706-.3693-.0013.0002.0719.3691Zm29.1379,1.2214l-.141.349.008.003.133-.352Zm11.492,9.4701l-.324.1906.005.0079.319-.1985Zm3.201,54.2891l-.289-.2411.289.2411Zm-17.141.7481l-.267.2654.007.006.26-.2714Zm-3.464-12.729l.339-.163-.715.1794.376-.0164Zm.914,1.8991l.373.0418.012-.1075-.047-.0974-.338.1631ZM105.5,94.0237l.306.2186-.306-.2186Zm-6.2797,5.2599l-.1686-.3361.1686.3361ZM90.159,101.103c-5.2062.227-9.845-.531-13.9247-2.2639l-.294.6921c4.1989,1.7838,8.9521,2.5548,14.2515,2.3228l-.0328-.751ZM76.2374,98.8404c-3.9938-1.7391-7.1883-4.1907-9.5946-7.3521l-.5983.4555c2.491,3.2727,5.7923,5.8005,9.8927,7.586l.3002-.6894Zm-9.5875-7.3425c-2.3156-3.2501-3.5688-7.0012-3.7549-11.265l-.7513.0328c.192,4.3989,1.4883,8.2922,3.8937,11.6685l.6125-.4363ZM62.895,80.2329c-.2143-4.9113.8913-8.784,3.2719-11.6626l-.5795-.4792c-2.5308,3.0601-3.6637,7.1332-3.4437,12.1746l.7513-.0328Zm3.2719-11.6626c2.3848-2.8838,6.357-5.0632,11.9788-6.5005l-.1862-.7285c-5.7009,1.4574-9.8457,3.6947-12.3721,6.7498l.5795.4792Zm11.9844-6.502c5.6191-1.5291,13.1626-2.5041,22.6417-2.9177l-.033-.7513c-9.5048.4148-17.1106,1.3936-22.8061,2.9435l.1974.7255Zm22.6417-2.9177l7.603-.3318-.033-.7512-7.603.3317.033.7513Zm7.211-.691l.506,11.6115.752-.0328-.507-11.6115-.751.0328Zm.866,11.2195l-7.603.3317.033.7513l7.602-.3318-.032-.7512Zm-7.603.3317c-3.6109.1576-6.6244.5671-9.0331,1.2348l.2008.7247c2.3351-.6473,5.2875-1.0521,8.8653-1.2082l-.033-.7513Zm-9.0224,1.232c-2.3219.5707-4.0725,1.4544-5.1996,2.6843l.5545.508c.9881-1.0783,2.5789-1.9101,4.8245-2.462l-.1794-.7303Zm-5.1883,2.6725c-1.1444,1.1448-1.67,2.6116-1.5935,4.3633l.7512-.0327c-.0683-1.5659.3954-2.8199,1.3742-3.799l-.5319-.5316Zm-1.5935,4.3633c.0967,2.2177.9537,4.0359,2.5716,5.4252l.4899-.5705c-1.4517-1.2466-2.2221-2.866-2.3103-4.8874l-.7512.0327Zm2.5803,5.4325c1.7208,1.3897,4.0637,1.9942,6.9783,1.867l-.0328-.7512c-2.7991.1221-4.9399-.4627-6.473-1.7009l-.4725.5851Zm6.9783,1.867c2.3606-.103,4.432-.7143,6.2016-1.8447l-.405-.6338c-1.6431,1.0498-3.5823,1.6292-5.8294,1.7273l.0328.7512Zm6.1946-1.8404c1.853-1.1266,3.312-2.6192,4.374-4.4745l-.653-.3734c-.997,1.7431-2.366,3.1438-4.112,4.2055l.391.6424Zm4.378-4.482c1.061-1.9579,1.533-4.1706,1.426-6.6267l-.751.0328c.102,2.336-.347,4.4107-1.336,6.2355l.661.3584Zm1.426-6.6267l-.7-16.0349-.751.0328.7,16.0349.751-.0328Zm-.7-16.0349c-.147-3.3748-1.146-5.8229-3.089-7.2238l-.44.6099c1.679,1.2109,2.636,3.3863,2.778,6.6467l.751-.0328Zm-3.081-7.2179c-1.83-1.3941-4.8787-1.9518-9.0437-1.77l.0328.7512c4.129-.1802,6.9459.3912,8.5549,1.6169l.456-.5981Zm-9.0437-1.77c-2.2421.0978-4.7434.4877-7.5017,1.1656l.1795.7303c2.7226-.6692,5.1736-1.0495,7.355-1.1447l-.0328-.7512Zm-7.4899,1.1629c-2.7746.5878-5.8476,1.6069-9.2173,3.0529l.2965.691c3.3372-1.4319,6.3622-2.4332,9.0767-3.0082l-.1559-.7357ZM77.4905,51.821c-2.3997,1.0098-4.4164,1.2124-6.0802.6806l-.229.7162c1.8943.6055,4.1047.3467,6.6009-.7037l-.2917-.6931Zm-6.0802.6806c-1.7016-.5439-3.0649-1.5402-4.0998-2.9963l-.6129.4356c1.1292,1.5887,2.6271,2.6835,4.4837,3.2769l.229-.7162Zm-4.0908-2.9831c-.9529-1.4693-1.4678-3.089-1.5453-4.8661l-.7513.0328c.0833,1.9091.6388,3.659,1.6657,5.2425l.6309-.4092Zm-1.545-4.8473c.0113-1.7738.5122-3.4851,1.5135-5.1389l-.6433-.3895c-1.0657,1.7603-1.61,3.6032-1.6222,5.5236l.752.0048Zm1.5059-5.127c1.0764-1.6363,2.7523-2.9633,5.0582-3.9677l-.3003-.6894c-2.4057,1.0478-4.2113,2.458-5.3861,4.2438l.6282.4133Zm5.0553-3.9664c4.3329-1.8441,8.3139-3.1177,11.9444-3.8254l-.1439-.7381c-3.6937.72-7.7258,2.012-12.095,3.8715l.2945.692Zm11.9431-3.8251c3.74-.7151,7.1653-1.1397,10.277-1.2755l-.0328-.7513c-3.1549.1377-6.6171.5677-10.3855,1.2882l.1413.7386Zm10.277-1.2755c7.5232-.3283,13.7342.5043,18.6492,2.4765l.281-.6979c-5.047-2.0249-11.373-2.8611-18.963-2.5299l.0328.7513Zm18.6572,2.4796c4.994,1.874,8.755,4.9764,11.301,9.3087l.649-.3811c-2.64-4.4898-6.541-7.7009-11.685-9.6316l-.265.704Zm11.306,9.3166c2.637,4.243,4.12,9.8332,4.424,16.7959l.751-.0328c-.307-7.045-1.81-12.7734-4.536-17.16l-.639.3969Zm4.424,16.7959l1.219,27.9229.751-.0328-1.219-27.9229-.751.0328Zm1.219,27.9229c.174,3.9997-.65,7.0236-2.412,9.1307l.577.4823c1.924-2.301,2.765-5.5359,2.586-9.6458l-.751.0328Zm-2.412,9.1307c-1.757,2.1013-4.409,3.2552-8.021,3.4128l.032.7513c3.76-.164,6.637-1.3751,8.566-3.6818l-.577-.4823Zm-8.021,3.4128c-3.707.1618-6.545-.754-8.571-2.6952l-.52.543c2.213,2.1211,5.274,3.0715,9.123,2.9035l-.032-.7513Zm-8.565-2.689c-1.938-1.9456-3.023-4.8862-3.198-8.8859l-.751.0328c.179,4.1099,1.299,7.2592,3.416,9.3838l.533-.5307Zm-3.198-8.8859l-.157-3.5941-.751.0328.157,3.5941.751-.0328Zm-.871-3.4147l.914,1.8991.677-.3261-.913-1.899-.678.326Zm.879,1.6943c-.326,2.9124-1.255,5.4305-2.78,7.5647l.612.4372c1.608-2.2497,2.577-4.8926,2.915-7.9183l-.747-.0836Zm-2.78,7.5647c-1.527,2.1379-3.572,3.8527-6.1423,5.1424l.3373.6721c2.67-1.3395,4.812-3.1313,6.417-5.3773l-.612-.4372Zm-6.1423,5.1424c-2.5656,1.2875-5.5273,2.0085-8.8927,2.1555l.0328.751c3.4541-.15,6.5224-.892,9.1972-2.2344l-.3373-.6721Z" fill="url(#ewZLakgqEcQ16-fill)"/></g><g id="ewZLakgqEcQ17" transform="matrix(1.028409 0.018578-.018578 1.028409 415.650337 5.481038)"><path d="M76.8792,131.782c-3.8705.169-6.9118-.761-9.1239-2.788s-3.4065-5.068-3.5835-9.122L60.8963,44.8114c-.177-4.0548.7481-7.1883,2.7752-9.4003c2.027-2.2121,4.9758-3.4026,8.8463-3.5715c3.9627-.1729,7.05.7542,9.2621,2.7812c2.3042,2.0231,3.5448,5.062,3.7217,9.1168l1.9907,45.6167.2765-.0121L103.74,68.1479c2.184-2.8652,4.215-4.9851,6.094-6.3597c1.967-1.4708,4.655-2.2806,8.065-2.4294s6.072.566,7.988,2.1444c1.915,1.5783,2.973,3.6096,3.174,6.0937s-.704,5.0166-2.715,7.5973L109.04,97.5547l-.374-8.5704l21.58,24.8187c2.14,2.492,3.08,4.99,2.82,7.494-.264,2.412-1.377,4.4-3.34,5.963-1.871,1.558-4.327,2.404-7.368,2.537-3.687.161-6.664-.356-8.932-1.549-2.272-1.286-4.576-3.309-6.912-6.069L88.3056,101.645l-.2764.012.748,17.141c.3619,8.294-3.6041,12.622-11.898,12.984Z" fill="#f54e00"/><path d="M67.7553,128.994l.2541-.277-.2541.277ZM63.6715,35.4111l-.2772-.254.2772.254Zm18.1084-.7903l-.2541.2773.006.0053.2481-.2826Zm5.7124,54.7335l-.3756.0164.0164.3756.3756-.0164-.0164-.3756Zm.2765-.0121l.0164.3757.1771-.0078.1067-.1416-.3002-.2263ZM103.74,68.1479l-.299-.2279-.001.0016.3.2263Zm6.094-6.3597l.222.3035.003-.0024-.225-.3011Zm16.053-.285l-.239.2901.239-.2901Zm3.174,6.0937l-.375.0303.375-.0303Zm-2.715,7.5973l-.297-.2311-.001.001.298.2301ZM109.04,97.5547l-.376.0164.045,1.0254.628-.8117-.297-.2301Zm-.374-8.5704l.284-.2467-.707-.8123.047,1.0754.376-.0164Zm21.58,24.8187l.286-.245-.002-.002-.284.247Zm2.82,7.494l.374.041v-.002l-.374-.039Zm-3.34,5.963l-.235-.295-.006.006.241.289Zm-16.3.988l-.185.327.01.006.175-.333Zm-6.912-6.069l.287-.243-.006-.007-.281.25ZM88.3056,101.645l.2814-.25-.1189-.134-.1788.008.0163.376Zm-.2764.012l-.0164-.376-.3756.017.0163.375.3757-.016ZM76.8628,131.406c-3.8012.166-6.7346-.747-8.8534-2.689l-.5081.555c2.3053,2.112,5.4545,3.057,9.3943,2.885l-.0328-.751Zm-8.8534-2.689c-2.1156-1.939-3.2878-4.871-3.4619-8.862l-.7513.033c.1797,4.118,1.3966,7.268,3.7051,9.384l.5081-.555Zm-3.4619-8.862l-3.2756-75.06-.7513.0328l3.2756,75.0602.7513-.033Zm-3.2756-75.06c-.1742-3.9913.7381-7.0143,2.6768-9.1299l-.5544-.508c-2.1155,2.3085-3.0534,5.5524-2.8737,9.6707l.7513-.0328Zm2.6768-9.1299c1.9416-2.1188,4.7843-3.284,8.5855-3.4498l-.0328-.7513c-3.9398.1719-6.9947,1.3878-9.1071,3.6931l.5544.508Zm8.5855-3.4498c3.8963-.1701,6.8745.7426,8.9917,2.6827l.508-.5544c-2.3069-2.114-5.5034-3.0554-9.5325-2.8796l.0328.7513Zm8.9976,2.6881c2.2046,1.9356,3.4202,4.8637,3.5942,8.8506l.7513-.0328c-.1799-4.1226-1.4455-7.2724-3.8493-9.3829l-.4962.5651ZM85.126,43.754l1.9907,45.6167.7512-.0328-1.9906-45.6167-.7513.0328Zm2.3827,45.9759l.2765-.012-.0328-.7513-.2765.0121.0328.7512Zm.5603-.1614l15.972-21.1943-.601-.4526L87.4685,89.116l.6005.4525Zm15.97-21.1927c2.172-2.8503,4.178-4.9392,6.017-6.2841l-.444-.6069c-1.92,1.4042-3.976,3.5552-6.171,6.4352l.598.4558Zm6.02-6.2865c1.887-1.411,4.493-2.2081,7.856-2.3549l-.033-.7512c-3.456.1508-6.227.9733-8.274,2.5039l.451.6022Zm7.856-2.3549c3.352-.1462,5.912.5587,7.733,2.0589l.478-.5803c-2.011-1.6565-4.776-2.3811-8.244-2.2298l.033.7512Zm7.733,2.0589c1.836,1.5134,2.846,3.4507,3.038,5.8339l.75-.0606c-.209-2.5851-1.316-4.7103-3.31-6.3536l-.478.5803Zm3.038,5.8339c.191,2.364-.665,4.8057-2.637,7.3359l.593.4622c2.05-2.6311,3.004-5.2544,2.794-7.8587l-.75.0606Zm-2.638,7.3369L108.743,97.3246l.594.4602l17.306-22.3605-.595-.4602ZM109.416,97.5383l-.374-8.5704-.752.0328.374,8.5704.752-.0328Zm-1.034-8.3073l21.581,24.818.567-.493-21.58-24.8184-.568.4934Zm21.579,24.817c2.094,2.438,2.978,4.837,2.731,7.21l.748.078c.274-2.636-.723-5.233-2.908-7.778l-.571.49Zm2.732,7.208c-.253,2.309-1.314,4.206-3.202,5.709l.469.589c2.038-1.623,3.205-3.701,3.48-6.216l-.747-.082Zm-3.208,5.715c-1.793,1.494-4.164,2.32-7.144,2.45l.033.752c3.102-.136,5.644-1.001,7.592-2.625l-.481-.577Zm-7.144,2.45c-3.647.16-6.551-.354-8.74-1.506l-.35.666c2.347,1.235,5.398,1.754,9.123,1.592l-.033-.752Zm-8.73-1.5c-2.221-1.258-4.492-3.247-6.81-5.985l-.574.486c2.354,2.782,4.692,4.839,7.014,6.153l.37-.654Zm-6.816-5.992L88.587,101.395l-.5627.499l18.2077,20.534.563-.499Zm-18.5057-20.66l-.2765.012.0328.752.2764-.012-.0327-.752Zm-.6358.404l.7481,17.141.7512-.033-.748-17.14-.7513.032Zm.7481,17.141c.1784,4.089-.7128,7.132-2.6047,9.196-1.8918,2.065-4.845,3.218-8.9341,3.396l.0328.751c4.2048-.183,7.3816-1.375,9.4557-3.639c2.0742-2.263,2.985-5.532,2.8015-9.737l-.7512.033Z" fill="url(#ewZLakgqEcQ19-fill)"/></g><g id="ewZLakgqEcQ20" transform="matrix(1.041444 0.008443-.008443 1.041443 477.264136 4.779878)"><path d="M77.6603,96.4872c-2.3961.1045-4.3655-.5943-5.9084-2.0966-1.4506-1.5063-2.4206-3.6338-2.9099-6.3823L62.1821,46.4732c-.8542-4.7639-.1476-8.6726,2.1197-11.7261c2.2633-3.1457,5.7449-4.8211,10.4448-5.0262c4.7921-.2091,8.4064,1.1566,10.843,4.0972c2.4326,2.8484,3.4309,6.6827,2.9949,11.503L85.7064,87.2723c-.248,2.7808-1.029,4.9846-2.3429,6.6116-1.314,1.6269-3.2151,2.4947-5.7032,2.6033Zm1.4296,32.7608c-4.147.181-7.5188-.918-10.1156-3.298-2.5046-2.383-3.8454-5.603-4.0223-9.657-.1729-3.963.8863-7.195,3.1778-9.695c2.3796-2.597,5.6429-3.986,9.7898-4.167c4.3313-.189,7.7032.91,10.1156,3.298c2.5006,2.292,3.8374,5.419,4.0103,9.381.177,4.055-.8783,7.379-3.1657,9.972-2.1953,2.588-5.4586,3.977-9.7899,4.166Z" fill="#f54e00"/><path d="M71.7519,94.3906l-.2709.2609.0086.0084.2623-.2693ZM68.842,88.0083l-.3713.0595.0011.0064.3702-.0659ZM62.1821,46.4732l.3713-.0595-.0012-.0068-.3701.0663Zm2.1197-11.7261l.3019.2242.0033-.0046-.3052-.2196Zm21.2878-.929l-.2895.2399.0036.0043.2859-.2442Zm2.9949,11.503l-.3745-.0339-.0006.0081.3751.0258ZM85.7064,87.2723l.3745.0334.0006-.0076-.3751-.0258Zm-2.3429,6.6116l-.2925-.2363.2925.2363ZM68.9743,125.95l-.2592.273.0052.004.254-.277Zm-.8445-19.352l-.2772-.254.2772.254Zm19.9054-.869l-.2644.267.0051.005.0053.005.254-.277Zm.8446,19.353l-.282-.249-.0048.005.2868.244ZM77.6439,96.1115c-2.3055.1006-4.1699-.569-5.6297-1.9903l-.5246.5387c1.626,1.5833,3.7005,2.3114,6.187,2.2029l-.0327-.7513Zm-5.6211-1.9818c-1.3843-1.4373-2.3301-3.4881-2.8106-6.1873l-.7404.1318c.4981,2.7978,1.4922,5.0019,3.0093,6.5772l.5417-.5217Zm-2.8095-6.181l-6.6599-41.535-.7425.1191l6.6599,41.535.7425-.1191ZM62.5522,46.4069c-.8412-4.6913-.1382-8.4868,2.0515-11.4357L64,34.5229c-2.3451,3.1582-3.0552,7.1802-2.188,12.0167l.7402-.1327ZM64.607,34.9667c2.1816-3.032,5.5439-4.6689,10.156-4.8701l-.0327-.7513c-4.7877.2089-8.3886,1.9229-10.7337,5.1822l.6104.4392Zm10.156-4.8701c4.7078-.2055,8.1946,1.1344,10.5371,3.9614l.579-.4798c-2.5306-3.0541-6.2725-4.4457-11.1488-4.2329l.0327.7513Zm10.5407,3.9657c2.3491,2.7507,3.336,6.4746,2.9063,11.2249l.749.0677c.4423-4.8901-.5675-8.8348-3.0835-11.781l-.5718.4884Zm2.9057,11.233L85.3313,87.2466l.7502.0515l2.8781-41.9513-.7502-.0515ZM85.3319,87.2389c-.2436,2.7309-1.0071,4.8562-2.2609,6.4087l.585.4725c1.3741-1.7015,2.1724-3.9838,2.4249-6.8144l-.749-.0668ZM83.071,93.6476c-1.2332,1.527-3.0242,2.3591-5.4271,2.4639l.0327.7513c2.5735-.1123,4.5846-1.0157,5.9794-2.7427l-.585-.4725ZM79.0735,128.873c-4.0665.177-7.3349-.9-9.8452-3.2l-.508.554c2.6833,2.459,6.1586,3.581,10.386,3.397l-.0328-.751Zm-9.84-3.195c-2.422-2.305-3.7324-5.426-3.9059-9.402l-.7513.033c.1804,4.134,1.5516,7.451,4.1388,9.914l.5184-.545Zm-3.9059-9.402c-.1694-3.881.8667-7.01,3.0794-9.424l-.5544-.508c-2.3702,2.586-3.4527,5.921-3.2763,9.965l.7513-.033Zm3.0794-9.424c2.3003-2.51,5.4626-3.868,9.529-4.045l-.0327-.751c-4.2275.184-7.5918,1.604-10.0507,4.288l.5544.508Zm9.529-4.045c4.2575-.186,7.5161.895,9.8348,3.189l.5289-.534c-2.5063-2.481-5.9913-3.599-10.3964-3.406l.0327.751Zm9.8452,3.199c2.4147,2.213,3.7193,5.239,3.8887,9.121l.7512-.033c-.1764-4.044-1.5453-7.272-4.1318-9.642l-.5081.554Zm3.8887,9.121c.1735,3.975-.86,7.199-3.0721,9.706l.5639.497c2.3629-2.678,3.4398-6.102,3.2594-10.236l-.7512.033Zm-3.0769,9.711c-2.1099,2.488-5.262,3.849-9.5195,4.035l.0328.751c4.4051-.192,7.7795-1.61,10.0602-4.299l-.5735-.487Z" fill="url(#ewZLakgqEcQ22-fill)"/></g><g id="ewZLakgqEcQ23" transform="matrix(1.05716-.008655 0.008655 1.05716 586.892524 35.951696)" opacity="0"><rect width="49.9233" height="25.9233" rx="3.96934" ry="3.96934" transform="matrix(.998889 0.047134-.047133 0.998889 2.21606 0.000001)" fill="#1d4aff"/><path d="M8.6254,18.284c-.71898-.0339-1.0615-.4104-1.02757-1.1293l.42581-9.02421c.03393-.71898.41037-1.0615,1.12935-1.02757l3.80631.1796c1.1736.05538,2.0707.35733,2.6912.90584.621.53795.9101,1.26156.8672,2.17084-.0285.6027-.2062,1.1135-.5333,1.5326s-.765.7162-1.3137.8917c.6259.2097,1.1026.55,1.4301,1.0212.3385.461.4916,1.0351.4591,1.7224-.0469.9939-.4216,1.7497-1.1242,2.2676-.6916.5078-1.6348.7335-2.8295.6771L8.6254,18.284Zm1.17611-6.3979l2.58509.122c1.3851.0654,2.1029-.4359,2.1532-1.5038s-.6169-1.6345-2.002-1.69985L9.95268,8.68247L9.80151,11.8861Zm-.23124,4.9007l2.85473.1347c1.3957.0658,2.1199-.4616,2.1728-1.5824.0529-1.1207-.6185-1.714-2.0141-1.7799l-2.85478-.1347-.15865,3.3623Zm9.65693,1.9975c-.7189-.034-1.0615-.4104-1.0275-1.1294l.4258-9.02415c.0339-.71898.4104-1.0615,1.1293-1.02758l5.6619.26717c.5498.02594.8123.30324.7873.8319-.0259.5498-.3138.81173-.8636.78579l-4.7896-.22601-.1452,3.07678l4.4407.2095c.5498.026.812.3086.7865.8478s-.313.7959-.8628.7699l-4.4407-.2095-.1534,3.2512l4.7896.226c.5498.026.812.3086.7865.8478-.0254.5392-.313.7959-.8629.7699l-5.6619-.2671Zm11.6953.679c-.6767-.032-.9986-.3968-.9656-1.0947l.4041-8.5642-3.0927-.14593c-.5815-.02744-.8588-.32663-.8318-.89758.0264-.56038.3304-.82685.9119-.79941l8.2153.38765c.5815.02744.8591.32135.8326.88173-.0269.57094-.3311.84274-.9126.81524L32.391,9.90019l-.4041,8.56421c-.0329.6979-.3877,1.0308-1.0644.9989Zm4.694.2215c-.3701-.0175-.6284-.1568-.7751-.4181-.1466-.2612-.1268-.5676.0593-.9191l4.6247-9.08036c.152-.30013.3261-.50915.5224-.62705.2074-.12797.4379-.18597.6917-.174.2432.01148.4567.09043.6405.23686.1949.13636.3538.36109.4768.6742l3.7651,9.47625c.1517.378.1475.6904-.0125.9372-.1595.2362-.419.3458-.7785.3289-.296-.014-.5254-.0937-.6881-.2391-.1516-.1556-.2838-.3843-.3967-.6864l-.7062-1.8771-5.4557-.2574-.864,1.803c-.1519.3002-.3051.5155-.4596.6459s-.3692.1892-.6441.1763Zm4.9813-8.8887l-2.2395,4.6787l4.0601.1916-1.7889-4.8688-.0317-.0015Z" fill="#fff"/></g><script><![CDATA[!function(t,e){"object"==typeof exports&&"undefined"!=typeof module?module.exports=e():"function"==typeof define&&define.amd?define(e):((t="undefined"!=typeof globalThis?globalThis:t||self).__SVGATOR_PLAYER__=t.__SVGATOR_PLAYER__||{},t.__SVGATOR_PLAYER__["91c80d77"]=e())}(this,(function(){"use strict";function t(t,e){var n=Object.keys(t);if(Object.getOwnPropertySymbols){var r=Object.getOwnPropertySymbols(t);e&&(r=r.filter((function(e){return Object.getOwnPropertyDescriptor(t,e).enumerable}))),n.push.apply(n,r)}return n}function e(e){for(var n=1;n<arguments.length;n++){var r=null!=arguments[n]?arguments[n]:{};n%2?t(Object(r),!0).forEach((function(t){u(e,t,r[t])})):Object.getOwnPropertyDescriptors?Object.defineProperties(e,Object.getOwnPropertyDescriptors(r)):t(Object(r)).forEach((function(t){Object.defineProperty(e,t,Object.getOwnPropertyDescriptor(r,t))}))}return e}function n(t){return(n="function"==typeof Symbol&&"symbol"==typeof Symbol.iterator?function(t){return typeof t}:function(t){return t&&"function"==typeof Symbol&&t.constructor===Symbol&&t!==Symbol.prototype?"symbol":typeof t})(t)}function r(t,e){if(!(t instanceof e))throw new TypeError("Cannot call a class as a function")}function i(t,e){for(var n=0;n<e.length;n++){var r=e[n];r.enumerable=r.enumerable||!1,r.configurable=!0,"value"in r&&(r.writable=!0),Object.defineProperty(t,r.key,r)}}function o(t,e,n){return e&&i(t.prototype,e),n&&i(t,n),t}function u(t,e,n){return e in t?Object.defineProperty(t,e,{value:n,enumerable:!0,configurable:!0,writable:!0}):t[e]=n,t}function a(t){return(a=Object.setPrototypeOf?Object.getPrototypeOf:function(t){return t.__proto__||Object.getPrototypeOf(t)})(t)}function l(t,e){return(l=Object.setPrototypeOf||function(t,e){return t.__proto__=e,t})(t,e)}function s(){if("undefined"==typeof Reflect||!Reflect.construct)return!1;if(Reflect.construct.sham)return!1;if("function"==typeof Proxy)return!0;try{return Boolean.prototype.valueOf.call(Reflect.construct(Boolean,[],(function(){}))),!0}catch(t){return!1}}function f(t,e,n){return(f=s()?Reflect.construct:function(t,e,n){var r=[null];r.push.apply(r,e);var i=new(Function.bind.apply(t,r));return n&&l(i,n.prototype),i}).apply(null,arguments)}function c(t,e){if(e&&("object"==typeof e||"function"==typeof e))return e;if(void 0!==e)throw new TypeError("Derived constructors may only return object or undefined");return function(t){if(void 0===t)throw new ReferenceError("this hasn't been initialised - super() hasn't been called");return t}(t)}function h(t,e,n){return(h="undefined"!=typeof Reflect&&Reflect.get?Reflect.get:function(t,e,n){var r=function(t,e){for(;!Object.prototype.hasOwnProperty.call(t,e)&&null!==(t=a(t)););return t}(t,e);if(r){var i=Object.getOwnPropertyDescriptor(r,e);return i.get?i.get.call(n):i.value}})(t,e,n||t)}function v(t){return function(t){if(Array.isArray(t))return y(t)}(t)||function(t){if("undefined"!=typeof Symbol&&null!=t[Symbol.iterator]||null!=t["@@iterator"])return Array.from(t)}(t)||function(t,e){if(!t)return;if("string"==typeof t)return y(t,e);var n=Object.prototype.toString.call(t).slice(8,-1);"Object"===n&&t.constructor&&(n=t.constructor.name);if("Map"===n||"Set"===n)return Array.from(t);if("Arguments"===n||/^(?:Ui|I)nt(?:8|16|32)(?:Clamped)?Array$/.test(n))return y(t,e)}(t)||function(){throw new TypeError("Invalid attempt to spread non-iterable instance.\nIn order to be iterable, non-array objects must have a [Symbol.iterator]() method.")}()}function y(t,e){(null==e||e>t.length)&&(e=t.length);for(var n=0,r=new Array(e);n<e;n++)r[n]=t[n];return r}Number.isInteger||(Number.isInteger=function(t){return"number"==typeof t&&isFinite(t)&&Math.floor(t)===t}),Number.EPSILON||(Number.EPSILON=2220446049250313e-31);var d=g(Math.pow(10,-6));function g(t){var e=arguments.length>1&&void 0!==arguments[1]?arguments[1]:6;if(Number.isInteger(t))return t;var n=Math.pow(10,e);return Math.round((+t+Number.EPSILON)*n)/n}function p(t,e){var n=arguments.length>2&&void 0!==arguments[2]?arguments[2]:d;return Math.abs(t-e)<n}var m=Math.PI/180;function b(t){return t}function w(t,e,n){var r=1-n;return 3*n*r*(t*r+e*n)+n*n*n}function k(){var t=arguments.length>0&&void 0!==arguments[0]?arguments[0]:0,e=arguments.length>1&&void 0!==arguments[1]?arguments[1]:0,n=arguments.length>2&&void 0!==arguments[2]?arguments[2]:1,r=arguments.length>3&&void 0!==arguments[3]?arguments[3]:1;return t<0||t>1||n<0||n>1?null:p(t,e)&&p(n,r)?b:function(i){if(i<=0)return t>0?i*e/t:0===e&&n>0?i*r/n:0;if(i>=1)return n<1?1+(i-1)*(r-1)/(n-1):1===n&&t<1?1+(i-1)*(e-1)/(t-1):1;for(var o,u=0,a=1;u<a;){var l=w(t,n,o=(u+a)/2);if(p(i,l))break;l<i?u=o:a=o}return w(e,r,o)}}function x(){return 1}function A(t){return 1===t?1:0}function _(){var t=arguments.length>0&&void 0!==arguments[0]?arguments[0]:1,e=arguments.length>1&&void 0!==arguments[1]?arguments[1]:0;if(1===t){if(0===e)return A;if(1===e)return x}var n=1/t;return function(t){return t>=1?1:(t+=e*n)-t%n}}var O=Math.sin,S=Math.cos,E=Math.acos,P=Math.asin,M=Math.tan,j=Math.atan2,B=Math.PI/180,T=180/Math.PI,I=Math.sqrt,R=function(){function t(){var e=arguments.length>0&&void 0!==arguments[0]?arguments[0]:1,n=arguments.length>1&&void 0!==arguments[1]?arguments[1]:0,i=arguments.length>2&&void 0!==arguments[2]?arguments[2]:0,o=arguments.length>3&&void 0!==arguments[3]?arguments[3]:1,u=arguments.length>4&&void 0!==arguments[4]?arguments[4]:0,a=arguments.length>5&&void 0!==arguments[5]?arguments[5]:0;r(this,t),this.m=[e,n,i,o,u,a],this.i=null,this.w=null,this.s=null}return o(t,[{key:"determinant",get:function(){var t=this.m;return t[0]*t[3]-t[1]*t[2]}},{key:"isIdentity",get:function(){if(null===this.i){var t=this.m;this.i=1===t[0]&&0===t[1]&&0===t[2]&&1===t[3]&&0===t[4]&&0===t[5]}return this.i}},{key:"point",value:function(t,e){var n=this.m;return{x:n[0]*t+n[2]*e+n[4],y:n[1]*t+n[3]*e+n[5]}}},{key:"translateSelf",value:function(){var t=arguments.length>0&&void 0!==arguments[0]?arguments[0]:0,e=arguments.length>1&&void 0!==arguments[1]?arguments[1]:0;if(!t&&!e)return this;var n=this.m;return n[4]+=n[0]*t+n[2]*e,n[5]+=n[1]*t+n[3]*e,this.w=this.s=this.i=null,this}},{key:"rotateSelf",value:function(){var t=arguments.length>0&&void 0!==arguments[0]?arguments[0]:0;if(t%=360){var e=O(t*=B),n=S(t),r=this.m,i=r[0],o=r[1];r[0]=i*n+r[2]*e,r[1]=o*n+r[3]*e,r[2]=r[2]*n-i*e,r[3]=r[3]*n-o*e,this.w=this.s=this.i=null}return this}},{key:"scaleSelf",value:function(){var t=arguments.length>0&&void 0!==arguments[0]?arguments[0]:1,e=arguments.length>1&&void 0!==arguments[1]?arguments[1]:1;if(1!==t||1!==e){var n=this.m;n[0]*=t,n[1]*=t,n[2]*=e,n[3]*=e,this.w=this.s=this.i=null}return this}},{key:"skewSelf",value:function(t,e){if(e%=360,(t%=360)||e){var n=this.m,r=n[0],i=n[1],o=n[2],u=n[3];t&&(t=M(t*B),n[2]+=r*t,n[3]+=i*t),e&&(e=M(e*B),n[0]+=o*e,n[1]+=u*e),this.w=this.s=this.i=null}return this}},{key:"resetSelf",value:function(){var t=arguments.length>0&&void 0!==arguments[0]?arguments[0]:1,e=arguments.length>1&&void 0!==arguments[1]?arguments[1]:0,n=arguments.length>2&&void 0!==arguments[2]?arguments[2]:0,r=arguments.length>3&&void 0!==arguments[3]?arguments[3]:1,i=arguments.length>4&&void 0!==arguments[4]?arguments[4]:0,o=arguments.length>5&&void 0!==arguments[5]?arguments[5]:0,u=this.m;return u[0]=t,u[1]=e,u[2]=n,u[3]=r,u[4]=i,u[5]=o,this.w=this.s=this.i=null,this}},{key:"recomposeSelf",value:function(){var t=arguments.length>0&&void 0!==arguments[0]?arguments[0]:null,e=arguments.length>1&&void 0!==arguments[1]?arguments[1]:null,n=arguments.length>2&&void 0!==arguments[2]?arguments[2]:null,r=arguments.length>3&&void 0!==arguments[3]?arguments[3]:null,i=arguments.length>4&&void 0!==arguments[4]?arguments[4]:null;return this.isIdentity||this.resetSelf(),t&&(t.x||t.y)&&this.translateSelf(t.x,t.y),e&&this.rotateSelf(e),n&&(n.x&&this.skewSelf(n.x,0),n.y&&this.skewSelf(0,n.y)),!r||1===r.x&&1===r.y||this.scaleSelf(r.x,r.y),i&&(i.x||i.y)&&this.translateSelf(i.x,i.y),this}},{key:"decompose",value:function(){var t=arguments.length>0&&void 0!==arguments[0]?arguments[0]:0,e=arguments.length>1&&void 0!==arguments[1]?arguments[1]:0,n=this.m,r=n[0]*n[0]+n[1]*n[1],i=[[n[0],n[1]],[n[2],n[3]]],o=I(r);if(0===o)return{origin:{x:g(n[4]),y:g(n[5])},translate:{x:g(t),y:g(e)},scale:{x:0,y:0},skew:{x:0,y:0},rotate:0};i[0][0]/=o,i[0][1]/=o;var u=n[0]*n[3]-n[1]*n[2]<0;u&&(o=-o);var a=i[0][0]*i[1][0]+i[0][1]*i[1][1];i[1][0]-=i[0][0]*a,i[1][1]-=i[0][1]*a;var l=I(i[1][0]*i[1][0]+i[1][1]*i[1][1]);if(0===l)return{origin:{x:g(n[4]),y:g(n[5])},translate:{x:g(t),y:g(e)},scale:{x:g(o),y:0},skew:{x:0,y:0},rotate:0};i[1][0]/=l,i[1][1]/=l,a/=l;var s=0;return i[1][1]<0?(s=E(i[1][1])*T,i[0][1]<0&&(s=360-s)):s=P(i[0][1])*T,u&&(s=-s),a=j(a,I(i[0][0]*i[0][0]+i[0][1]*i[0][1]))*T,u&&(a=-a),{origin:{x:g(n[4]),y:g(n[5])},translate:{x:g(t),y:g(e)},scale:{x:g(o),y:g(l)},skew:{x:g(a),y:0},rotate:g(s)}}},{key:"clone",value:function(){var t=this.m;return new this.constructor(t[0],t[1],t[2],t[3],t[4],t[5])}},{key:"toString",value:function(){var t=arguments.length>0&&void 0!==arguments[0]?arguments[0]:" ";if(null===this.s){var e=this.m.map((function(t){return g(t)}));1===e[0]&&0===e[1]&&0===e[2]&&1===e[3]?this.s="translate("+e[4]+t+e[5]+")":this.s="matrix("+e.join(t)+")"}return this.s}}],[{key:"create",value:function(t){return t?Array.isArray(t)?f(this,v(t)):t instanceof this?t.clone():(new this).recomposeSelf(t.origin,t.rotate,t.skew,t.scale,t.translate):new this}}]),t}();function N(t,e,n){return t>=.5?n:e}function F(t,e,n){return 0===t||e===n?e:t*(n-e)+e}function C(t,e,n){var r=F(t,e,n);return r<=0?0:r}function L(t,e,n){var r=F(t,e,n);return r<=0?0:r>=1?1:r}function D(t,e,n){return 0===t?e:1===t?n:{x:F(t,e.x,n.x),y:F(t,e.y,n.y)}}function V(t,e,n){return 0===t?e:1===t?n:{x:C(t,e.x,n.x),y:C(t,e.y,n.y)}}function q(t,e,n){var r=function(t,e,n){return Math.round(F(t,e,n))}(t,e,n);return r<=0?0:r>=255?255:r}function z(t,e,n){return 0===t?e:1===t?n:{r:q(t,e.r,n.r),g:q(t,e.g,n.g),b:q(t,e.b,n.b),a:F(t,null==e.a?1:e.a,null==n.a?1:n.a)}}function Y(t,e,n){var r=e.length;if(r!==n.length)return N(t,e,n);for(var i=new Array(r),o=0;o<r;o++)i[o]=F(t,e[o],n[o]);return i}function G(t,e){for(var n=[],r=0;r<t;r++)n.push(e);return n}function U(t,e){if(--e<=0)return t;var n=(t=Object.assign([],t)).length;do{for(var r=0;r<n;r++)t.push(t[r])}while(--e>0);return t}var $,W=function(){function t(e){r(this,t),this.list=e,this.length=e.length}return o(t,[{key:"setAttribute",value:function(t,e){for(var n=this.list,r=0;r<this.length;r++)n[r].setAttribute(t,e)}},{key:"removeAttribute",value:function(t){for(var e=this.list,n=0;n<this.length;n++)e[n].removeAttribute(t)}},{key:"style",value:function(t,e){for(var n=this.list,r=0;r<this.length;r++)n[r].style[t]=e}}]),t}(),H=/-./g,Q=function(t,e){return e.toUpperCase()};function X(t){return"function"==typeof t?t:N}function J(t){return t?"function"==typeof t?t:Array.isArray(t)?function(t){var e=arguments.length>1&&void 0!==arguments[1]?arguments[1]:b;if(!Array.isArray(t))return e;switch(t.length){case 1:return _(t[0])||e;case 2:return _(t[0],t[1])||e;case 4:return k(t[0],t[1],t[2],t[3])||e}return e}(t,null):function(t,e){var n=arguments.length>2&&void 0!==arguments[2]?arguments[2]:b;switch(t){case"linear":return b;case"steps":return _(e.steps||1,e.jump||0)||n;case"bezier":case"cubic-bezier":return k(e.x1||0,e.y1||0,e.x2||0,e.y2||0)||n}return n}(t.type,t.value,null):null}function K(t,e,n){var r=arguments.length>3&&void 0!==arguments[3]&&arguments[3],i=e.length-1;if(t<=e[0].t)return r?[0,0,e[0].v]:e[0].v;if(t>=e[i].t)return r?[i,1,e[i].v]:e[i].v;var o,u=e[0],a=null;for(o=1;o<=i;o++){if(!(t>e[o].t)){a=e[o];break}u=e[o]}return null==a?r?[i,1,e[i].v]:e[i].v:u.t===a.t?r?[o,1,a.v]:a.v:(t=(t-u.t)/(a.t-u.t),u.e&&(t=u.e(t)),r?[o,t,n(t,u.v,a.v)]:n(t,u.v,a.v))}function Z(t,e){var n=arguments.length>2&&void 0!==arguments[2]?arguments[2]:null;return t&&t.length?"function"!=typeof e?null:("function"!=typeof n&&(n=null),function(r){var i=K(r,t,e);return null!=i&&n&&(i=n(i)),i}):null}function tt(t,e){return t.t-e.t}function et(t,e,r,i,o){var u,a="@"===r[0],l="#"===r[0],s=$[r],f=N;switch(a?(u=r.substr(1),r=u.replace(H,Q)):l&&(r=r.substr(1)),n(s)){case"function":if(f=s(i,o,K,J,r,a,e,t),l)return f;break;case"string":f=Z(i,X(s));break;case"object":if((f=Z(i,X(s.i),s.f))&&"function"==typeof s.u)return s.u(e,f,r,a,t)}return f?function(t,e,n){if(arguments.length>3&&void 0!==arguments[3]&&arguments[3])return t instanceof W?function(r){return t.style(e,n(r))}:function(r){return t.style[e]=n(r)};if(Array.isArray(e)){var r=e.length;return function(i){var o=n(i);if(null==o)for(var u=0;u<r;u++)t[u].removeAttribute(e);else for(var a=0;a<r;a++)t[a].setAttribute(e,o)}}return function(r){var i=n(r);null==i?t.removeAttribute(e):t.setAttribute(e,i)}}(e,r,f,a):null}function nt(t,e,r,i){if(!i||"object"!==n(i))return null;var o=null,u=null;return Array.isArray(i)?u=function(t){if(!t||!t.length)return null;for(var e=0;e<t.length;e++)t[e].e&&(t[e].e=J(t[e].e));return t.sort(tt)}(i):(u=i.keys,o=i.data||null),u?et(t,e,r,u,o):null}function rt(t,e,n){if(!n)return null;var r=[];for(var i in n)if(n.hasOwnProperty(i)){var o=nt(t,e,i,n[i]);o&&r.push(o)}return r.length?r:null}function it(t,e){if(!e.duration||e.duration<0)return null;var n=function(t,e){if(!e)return null;var n=[];if(Array.isArray(e))for(var r=e.length,i=0;i<r;i++){var o=e[i];if(2===o.length){var u=null;if("string"==typeof o[0])u=t.getElementById(o[0]);else if(Array.isArray(o[0])){u=[];for(var a=0;a<o[0].length;a++)if("string"==typeof o[0][a]){var l=t.getElementById(o[0][a]);l&&u.push(l)}u=u.length?1===u.length?u[0]:new W(u):null}if(u){var s=rt(t,u,o[1]);s&&(n=n.concat(s))}}}else for(var f in e)if(e.hasOwnProperty(f)){var c=t.getElementById(f);if(c){var h=rt(t,c,e[f]);h&&(n=n.concat(h))}}return n.length?n:null}(t,e.elements);return n?function(t,e){var n=arguments.length>2&&void 0!==arguments[2]?arguments[2]:1/0,r=arguments.length>3&&void 0!==arguments[3]?arguments[3]:1,i=arguments.length>4&&void 0!==arguments[4]&&arguments[4],o=arguments.length>5&&void 0!==arguments[5]?arguments[5]:1,u=t.length,a=r>0?e:0;i&&n%2==0&&(a=e-a);var l=null;return function(s,f){var c=s%e,h=1+(s-c)/e;f*=r,i&&h%2==0&&(f=-f);var v=!1;if(h>n)c=a,v=!0,-1===o&&(c=r>0?0:e);else if(f<0&&(c=e-c),c===l)return!1;l=c;for(var y=0;y<u;y++)t[y](c);return v}}(n,e.duration,e.iterations||1/0,e.direction||1,!!e.alternate,e.fill||1):null}function ot(t){return+("0x"+(t.replace(/[^0-9a-fA-F]+/g,"")||27))}function ut(t,e,n){return!t||!n||e>t.length?t:t.substring(0,e)+ut(t.substring(e+1),n,n)}function at(t){var e=arguments.length>1&&void 0!==arguments[1]?arguments[1]:27;return!t||t%e?t%e:at(t/e,e)}function lt(t,e,n){if(t&&t.length){var r=ot(n),i=ot(e),o=at(r)+5,u=ut(t,at(r,5),o);return u=u.replace(/\x7c$/g,"==").replace(/\x2f$/g,"="),u=function(t,e,n){var r=+("0x"+t.substring(0,4));t=t.substring(4);for(var i=e%r+n%27,o=[],u=0;u<t.length;u+=2)if("|"!==t[u]){var a=+("0x"+t[u]+t[u+1])-i;o.push(a)}else{var l=+("0x"+t.substring(u+1,u+1+4))-i;u+=3,o.push(l)}return String.fromCharCode.apply(String,o)}(u=(u=atob(u)).replace(/[\x41-\x5A]/g,""),i,r),u=JSON.parse(u)}}var st=function(){function t(e,n){var i=arguments.length>2&&void 0!==arguments[2]?arguments[2]:{};r(this,t),this._id=0,this._running=!1,this._rollingBack=!1,this._animations=e,this.duration=n.duration,this.alternate=n.alternate,this.fill=n.fill,this.iterations=n.iterations,this.direction=i.direction||1,this.speed=i.speed||1,this.fps=i.fps||100,this.offset=i.offset||0,this.rollbackStartOffset=0}return o(t,[{key:"maxFiniteDuration",get:function(){return this.iterations>0?this.iterations*this.duration:this.duration}},{key:"_apply",value:function(t){for(var e=arguments.length>1&&void 0!==arguments[1]?arguments[1]:{},n=this._animations,r=n.length,i=0,o=0;o<r;o++)e[o]?i++:(e[o]=n[o](t,this.direction),e[o]&&i++);return i}},{key:"_rollback",value:function(){var t=this,e=1/0,n=null;this.rollbackStartOffset=this.offset,this._rollingBack=!0,this._running=!0;this._id=window.requestAnimationFrame((function r(i){if(t._rollingBack){null==n&&(n=i);var o=i-n,u=t.rollbackStartOffset-o,a=Math.round(u*t.speed);if(a>t.duration&&e!==1/0){var l=!!t.alternate&&a/t.duration%2>1,s=a%t.duration;a=(s+=l?t.duration:0)||t.duration}var f=t.fps?1e3/t.fps:0,c=Math.max(0,a);c<e-f&&(t.offset=c,e=c,t._apply(c));var h=t.iterations>0&&-1===t.fill&&a>=t.maxFiniteDuration;(a<=0||t.offset<a||h)&&t.stop(),t._id=window.requestAnimationFrame(r)}}))}},{key:"_start",value:function(){var t=this,e=arguments.length>0&&void 0!==arguments[0]?arguments[0]:0,n=-1/0,r=null,i={};this._running=!0;var o=function o(u){null==r&&(r=u);var a=Math.round((u-r+e)*t.speed),l=t.fps?1e3/t.fps:0;if(a>n+l&&!t._rollingBack&&(t.offset=a,n=a,t._apply(a,i)===t._animations.length))return void t.pause(!0);t._id=window.requestAnimationFrame(o)};this._id=window.requestAnimationFrame(o)}},{key:"_pause",value:function(){this._id&&window.cancelAnimationFrame(this._id),this._running=!1}},{key:"play",value:function(){if(!this._running)return this._rollingBack?this._rollback():this._start(this.offset)}},{key:"stop",value:function(){this._pause(),this.offset=0,this.rollbackStartOffset=0,this._rollingBack=!1,this._apply(0)}},{key:"reachedToEnd",value:function(){return this.iterations>0&&this.offset>=this.iterations*this.duration}},{key:"restart",value:function(){var t=arguments.length>0&&void 0!==arguments[0]&&arguments[0];this.stop(t),this.play(t)}},{key:"pause",value:function(){this._pause()}},{key:"reverse",value:function(){this.direction=-this.direction}}],[{key:"build",value:function(t,n){return delete t.animationSettings,t.options=lt(t.options,t.root,"91c80d77"),t.animations.map((function(n){var r=lt(n.s,t.root,"91c80d77");for(var i in delete n.s,t.animationSettings||(t.animationSettings=e({},r)),r)r.hasOwnProperty(i)&&(n[i]=r[i])})),(t=function(t,e){if($=e,!t||!t.root||!Array.isArray(t.animations))return null;for(var n=document.getElementsByTagName("svg"),r=!1,i=0;i<n.length;i++)if(n[i].id===t.root&&!n[i].svgatorAnimation){(r=n[i]).svgatorAnimation=!0;break}if(!r)return null;var o=t.animations.map((function(t){return it(r,t)})).filter((function(t){return!!t}));return o.length?{element:r,animations:o,animationSettings:t.animationSettings,options:t.options||void 0}:null}(t,n))?{el:t.element,options:t.options||{},player:new this(t.animations,t.animationSettings,t.options)}:null}},{key:"push",value:function(t){return this.build(t)}},{key:"init",value:function(){var t=this,e=window.__SVGATOR_PLAYER__&&window.__SVGATOR_PLAYER__["91c80d77"];Array.isArray(e)&&e.splice(0).forEach((function(e){return t.build(e)}))}}]),t}();!function(){for(var t=0,e=["ms","moz","webkit","o"],n=0;n<e.length&&!window.requestAnimationFrame;++n)window.requestAnimationFrame=window[e[n]+"RequestAnimationFrame"],window.cancelAnimationFrame=window[e[n]+"CancelAnimationFrame"]||window[e[n]+"CancelRequestAnimationFrame"];window.requestAnimationFrame||(window.requestAnimationFrame=function(e){var n=Date.now(),r=Math.max(0,16-(n-t)),i=window.setTimeout((function(){e(n+r)}),r);return t=n+r,i},window.cancelAnimationFrame=window.clearTimeout)}();var ft=function(t,e){var n=!1,r=null;return function(i){n&&clearTimeout(n),n=setTimeout((function(){return function(){for(var i=0,o=window.innerHeight,u=0,a=window.innerWidth,l=t.parentNode;l instanceof Element;){var s=window.getComputedStyle(l);if("visible"!==s.overflowY||"visible"!==s.overflowX){var f=l.getBoundingClientRect();"visible"!==s.overflowY&&(i=Math.max(i,f.top),o=Math.min(o,f.bottom)),"visible"!==s.overflowX&&(u=Math.max(u,f.left),a=Math.min(a,f.right))}if(l===l.parentNode)break;l=l.parentNode}n=!1;var c=t.getBoundingClientRect(),h=Math.min(c.height,Math.max(0,i-c.top)),v=Math.min(c.height,Math.max(0,c.bottom-o)),y=Math.min(c.width,Math.max(0,u-c.left)),d=Math.min(c.width,Math.max(0,c.right-a)),g=(c.height-h-v)/c.height,p=(c.width-y-d)/c.width,m=Math.round(g*p*100);null!==r&&r===m||(r=m,e(m))}()}),100)}},ct=function(){function t(e,n,i){r(this,t),n=Math.max(1,n||1),n=Math.min(n,100),this.el=e,this._handlers=[],this.onThresholdChange=i&&i.call?i:function(){},this.thresholdPercent=n||1,this.currentVisibility=null,this.visibilityCalculator=ft(e,this.onVisibilityUpdate.bind(this)),this.bindScrollWatchers(),this.visibilityCalculator()}return o(t,[{key:"bindScrollWatchers",value:function(){for(var t=this.el.parentNode;t&&(this._handlers.push({element:t,event:"scroll",handler:this.visibilityCalculator}),t.addEventListener("scroll",this.visibilityCalculator),t!==t.parentNode&&t!==document);)t=t.parentNode}},{key:"onVisibilityUpdate",value:function(t){var e=this.currentVisibility>=this.thresholdPercent,n=t>=this.thresholdPercent;if(null===this.currentVisibility||e!==n)return this.currentVisibility=t,void this.onThresholdChange(n);this.currentVisibility=t}},{key:"destruct",value:function(){this._handlers.forEach((function(t){t.element.removeEventListener(t.event,t.handler)}))}}]),t}();function ht(t){return g(t)+""}function vt(t){var e=arguments.length>1&&void 0!==arguments[1]?arguments[1]:" ";return t&&t.length?t.map(ht).join(e):""}function yt(t){return ht(t.x)+","+ht(t.y)}function dt(t){if(!t)return"transparent";if(null==t.a||t.a>=1){var e=function(t){return 1===(t=parseInt(t).toString(16)).length?"0"+t:t},n=function(t){return t.charAt(0)===t.charAt(1)},r=e(t.r),i=e(t.g),o=e(t.b);return n(r)&&n(i)&&n(o)&&(r=r.charAt(0),i=i.charAt(0),o=o.charAt(0)),"#"+r+i+o}return"rgba("+t.r+","+t.g+","+t.b+","+t.a+")"}function gt(t){return t?"url(#"+t+")":"none"}var pt={f:null,i:V,u:function(t,e){return function(n){var r=e(n);t.setAttribute("rx",ht(r.x)),t.setAttribute("ry",ht(r.y))}}},mt={f:null,i:function(t,e,n){return 0===t?e:1===t?n:{width:C(t,e.width,n.width),height:C(t,e.height,n.height)}},u:function(t,e){return function(n){var r=e(n);t.setAttribute("width",ht(r.width)),t.setAttribute("height",ht(r.height))}}};Object.freeze({M:2,L:2,Z:0,H:1,V:1,C:6,Q:4,T:2,S:4,A:7});var bt={},wt=null;function kt(t){var e=function(){if(wt)return wt;if("object"!==("undefined"==typeof document?"undefined":n(document))||!document.createElementNS)return{};var t=document.createElementNS("http://www.w3.org/2000/svg","svg");return t&&t.style?(t.style.position="absolute",t.style.opacity="0.01",t.style.zIndex="-9999",t.style.left="-9999px",t.style.width="1px",t.style.height="1px",wt={svg:t}):{}}().svg;if(!e)return function(t){return null};var r=document.createElementNS(e.namespaceURI,"path");r.setAttributeNS(null,"d",t),r.setAttributeNS(null,"fill","none"),r.setAttributeNS(null,"stroke","none"),e.appendChild(r);var i=r.getTotalLength();return function(t){var e=r.getPointAtLength(i*t);return{x:e.x,y:e.y}}}function xt(t){return bt[t]?bt[t]:bt[t]=kt(t)}function At(t,e,n,r){if(!t||!r)return!1;var i=["M",t.x,t.y];if(e&&n&&(i.push("C"),i.push(e.x),i.push(e.y),i.push(n.x),i.push(n.y)),e?!n:n){var o=e||n;i.push("Q"),i.push(o.x),i.push(o.y)}return e||n||i.push("L"),i.push(r.x),i.push(r.y),i.join(" ")}function _t(t,e,n,r){var i=arguments.length>4&&void 0!==arguments[4]?arguments[4]:1,o=At(t,e,n,r),u=xt(o);try{return u(i)}catch(t){return null}}function Ot(t,e,n){return t+(e-t)*n}function St(t,e,n){var r=arguments.length>3&&void 0!==arguments[3]&&arguments[3],i={x:Ot(t.x,e.x,n),y:Ot(t.y,e.y,n)};return r&&(i.a=Et(t,e)),i}function Et(t,e){return Math.atan2(e.y-t.y,e.x-t.x)}function Pt(t,e,n,r){var i=1-r;return i*i*t+2*i*r*e+r*r*n}function Mt(t,e,n,r){return 2*(1-r)*(e-t)+2*r*(n-e)}function jt(t,e,n,r){var i=arguments.length>4&&void 0!==arguments[4]&&arguments[4],o=_t(t,e,null,n,r);return o||(o={x:Pt(t.x,e.x,n.x,r),y:Pt(t.y,e.y,n.y,r)}),i&&(o.a=Bt(t,e,n,r)),o}function Bt(t,e,n,r){return Math.atan2(Mt(t.y,e.y,n.y,r),Mt(t.x,e.x,n.x,r))}function Tt(t,e,n,r,i){var o=i*i;return i*o*(r-t+3*(e-n))+3*o*(t+n-2*e)+3*i*(e-t)+t}function It(t,e,n,r,i){var o=1-i;return 3*(o*o*(e-t)+2*o*i*(n-e)+i*i*(r-n))}function Rt(t,e,n,r,i){var o=arguments.length>5&&void 0!==arguments[5]&&arguments[5],u=_t(t,e,n,r,i);return u||(u={x:Tt(t.x,e.x,n.x,r.x,i),y:Tt(t.y,e.y,n.y,r.y,i)}),o&&(u.a=Nt(t,e,n,r,i)),u}function Nt(t,e,n,r,i){return Math.atan2(It(t.y,e.y,n.y,r.y,i),It(t.x,e.x,n.x,r.x,i))}function Ft(t,e,n){var r=arguments.length>3&&void 0!==arguments[3]&&arguments[3];if(Lt(e)){if(Dt(n))return jt(e,n.start,n,t,r)}else if(Lt(n)){if(e.end)return jt(e,e.end,n,t,r)}else{if(e.end)return n.start?Rt(e,e.end,n.start,n,t,r):jt(e,e.end,n,t,r);if(n.start)return jt(e,n.start,n,t,r)}return St(e,n,t,r)}function Ct(t,e,n){var r=Ft(t,e,n,!0);return r.a=function(t){return arguments.length>1&&void 0!==arguments[1]&&arguments[1]?t+Math.PI:t}(r.a)/m,r}function Lt(t){return!t.type||"corner"===t.type}function Dt(t){return null!=t.start&&!Lt(t)}var Vt=new R;var qt={f:function(t){return t?t.join(" "):""},i:function(t,e,r){if(0===t)return e;if(1===t)return r;var i=e.length;if(i!==r.length)return N(t,e,r);for(var o,u=new Array(i),a=0;a<i;a++){if((o=n(e[a]))!==n(r[a]))return N(t,e,r);if("number"===o)u[a]=F(t,e[a],r[a]);else{if(e[a]!==r[a])return N(t,e,r);u[a]=e[a]}}return u}},zt={f:null,i:Y,u:function(t,e){return function(n){var r=e(n);t.setAttribute("x1",ht(r[0])),t.setAttribute("y1",ht(r[1])),t.setAttribute("x2",ht(r[2])),t.setAttribute("y2",ht(r[3]))}}},Yt={f:ht,i:F},Gt={f:ht,i:L},Ut={f:function(t){var e=arguments.length>1&&void 0!==arguments[1]?arguments[1]:" ";return t&&t.length>0&&(t=t.map((function(t){return g(t,4)}))),vt(t,e)},i:function(t,e,n){var r,i,o,u=e.length,a=n.length;if(u!==a)if(0===u)e=G(u=a,0);else if(0===a)a=u,n=G(u,0);else{var l=(o=(r=u)*(i=a)/function(t,e){for(var n;e;)n=e,e=t%e,t=n;return t||1}(r,i))<0?-o:o;e=U(e,Math.floor(l/u)),n=U(n,Math.floor(l/a)),u=a=l}for(var s=[],f=0;f<u;f++)s.push(g(C(t,e[f],n[f])));return s}};function $t(t,e,n){return t.map((function(t){return function(t,e,n){var r=t.v;if(!r||"g"!==r.t||r.s||!r.v||!r.r)return t;var i=n.getElementById(r.r),o=i&&i.querySelectorAll("stop")||[];return r.s=r.v.map((function(t,e){var n=o[e]&&o[e].getAttribute("offset");return{c:t,o:n=g(parseInt(n)/100)}})),delete r.v,t}(t,0,n)}))}var Wt={gt:"gradientTransform",c:{x:"cx",y:"cy"},rd:"r",f:{x:"x1",y:"y1"},to:{x:"x2",y:"y2"}};function Ht(t,e,r,i,o,u,a,l){return $t(t,0,l),e=function(t,e,n){for(var r,i,o,u=t.length-1,a={},l=0;l<=u;l++)(r=t[l]).e&&(r.e=e(r.e)),r.v&&"g"===(i=r.v).t&&i.r&&(o=n.getElementById(i.r))&&(a[i.r]={e:o,s:o.querySelectorAll("stop")});return a}(t,i,l),function(i){var o=r(i,t,Qt);if(!o)return"none";if("c"===o.t)return dt(o.v);if("g"===o.t){if(!e[o.r])return gt(o.r);var u=e[o.r];return function(t,e){for(var n=t.s,r=n.length;r<e.length;r++){var i=n[n.length-1].cloneNode();i.id=Kt(i.id),t.e.appendChild(i),n=t.s=t.e.querySelectorAll("stop")}for(var o=0,u=n.length,a=e.length-1;o<u;o++)n[o].setAttribute("stop-color",dt(e[Math.min(o,a)].c)),n[o].setAttribute("offset",e[Math.min(o,a)].o)}(u,o.s),Object.keys(Wt).forEach((function(t){if(void 0!==o[t])if("object"!==n(Wt[t])){var e,r="gt"===t?(e=o[t],Array.isArray(e)?"matrix("+e.join(" ")+")":""):o[t],i=Wt[t];u.e.setAttribute(i,r)}else Object.keys(Wt[t]).forEach((function(e){if(void 0!==o[t][e]){var n=o[t][e],r=Wt[t][e];u.e.setAttribute(r,n)}}))})),gt(o.r)}return"none"}}function Qt(t,n,r){if(0===t)return n;if(1===t)return r;if(n&&r){var i=n.t;if(i===r.t)switch(n.t){case"c":return{t:i,v:z(t,n.v,r.v)};case"g":if(n.r===r.r){var o={t:i,s:Xt(t,n.s,r.s),r:n.r};return n.gt&&r.gt&&(o.gt=Y(t,n.gt,r.gt)),n.c?(o.c=D(t,n.c,r.c),o.rd=C(t,n.rd,r.rd)):n.f&&(o.f=D(t,n.f,r.f),o.to=D(t,n.to,r.to)),o}}if("c"===n.t&&"g"===r.t||"c"===r.t&&"g"===n.t){var u="c"===n.t?n:r,a="g"===n.t?e({},n):e({},r),l=a.s.map((function(t){return{c:u.v,o:t.o}}));return a.s="c"===n.t?Xt(t,l,a.s):Xt(t,a.s,l),a}}return N(t,n,r)}function Xt(t,e,n){if(e.length===n.length)return e.map((function(e,r){return Jt(t,e,n[r])}));for(var r=Math.max(e.length,n.length),i=[],o=0;o<r;o++){var u=Jt(t,e[Math.min(o,e.length-1)],n[Math.min(o,n.length-1)]);i.push(u)}return i}function Jt(t,e,n){return{o:L(t,e.o,n.o||0),c:z(t,e.c,n.c||{})}}function Kt(t){return t.replace(/-fill-([0-9]+)$/,(function(t,e){return"-fill-"+(+e+1)}))}var Zt={blur:V,brightness:C,contrast:C,"drop-shadow":function(t,e,n){return 0===t?e:1===t?n:{blur:V(t,e.blur,n.blur),offset:D(t,e.offset,n.offset),color:z(t,e.color,n.color)}},grayscale:C,"hue-rotate":F,invert:C,opacity:C,saturate:C,sepia:C};function te(t,e,n){if(0===t)return e;if(1===t)return n;var r=e.length;if(r!==n.length)return N(t,e,n);for(var i,o=[],u=0;u<r;u++){if(e[u].type!==n[u].type)return e;if(!(i=Zt[e[u].type]))return N(t,e,n);o.push({type:e.type,value:i(t,e[u].value,n[u].value)})}return o}var ee={blur:function(t){return t?function(e){t.setAttribute("stdDeviation",yt(e))}:null},brightness:function(t,e,n){return(t=re(n,e))?function(e){e=ht(e),t.map((function(t){return t.setAttribute("slope",e)}))}:null},contrast:function(t,e,n){return(t=re(n,e))?function(e){var n=ht((1-e)/2);e=ht(e),t.map((function(t){t.setAttribute("slope",e),t.setAttribute("intercept",n)}))}:null},"drop-shadow":function(t,e,n){var r=n.getElementById(e+"-blur");if(!r)return null;var i=n.getElementById(e+"-offset");if(!i)return null;var o=n.getElementById(e+"-flood");return o?function(t){r.setAttribute("stdDeviation",yt(t.blur)),i.setAttribute("dx",ht(t.offset.x)),i.setAttribute("dy",ht(t.offset.y)),o.setAttribute("flood-color",dt(t.color))}:null},grayscale:function(t){return t?function(e){t.setAttribute("values",vt(function(t){return[.2126+.7874*(t=1-t),.7152-.7152*t,.0722-.0722*t,0,0,.2126-.2126*t,.7152+.2848*t,.0722-.0722*t,0,0,.2126-.2126*t,.7152-.7152*t,.0722+.9278*t,0,0,0,0,0,1,0]}(e)))}:null},"hue-rotate":function(t){return t?function(e){return t.setAttribute("values",ht(e))}:null},invert:function(t,e,n){return(t=re(n,e))?function(e){e=ht(e)+" "+ht(1-e),t.map((function(t){return t.setAttribute("tableValues",e)}))}:null},opacity:function(t,e,n){return(t=n.getElementById(e+"-A"))?function(e){return t.setAttribute("tableValues","0 "+ht(e))}:null},saturate:function(t){return t?function(e){return t.setAttribute("values",ht(e))}:null},sepia:function(t){return t?function(e){return t.setAttribute("values",vt(function(t){return[.393+.607*(t=1-t),.769-.769*t,.189-.189*t,0,0,.349-.349*t,.686+.314*t,.168-.168*t,0,0,.272-.272*t,.534-.534*t,.131+.869*t,0,0,0,0,0,1,0]}(e)))}:null}};var ne=["R","G","B"];function re(t,e){var n=ne.map((function(n){return t.getElementById(e+"-"+n)||null}));return-1!==n.indexOf(null)?null:n}var ie={fill:Ht,"fill-opacity":Gt,stroke:Ht,"stroke-opacity":Gt,"stroke-width":Yt,"stroke-dashoffset":{f:ht,i:F},"stroke-dasharray":Ut,opacity:Gt,transform:function(t,e,r,i){if(!(t=function(t,e){if(!t||"object"!==n(t))return null;var r=!1;for(var i in t)t.hasOwnProperty(i)&&(t[i]&&t[i].length?(t[i].forEach((function(t){t.e&&(t.e=e(t.e))})),r=!0):delete t[i]);return r?t:null}(t,i)))return null;var o=function(n,i,o){var u=arguments.length>3&&void 0!==arguments[3]?arguments[3]:null;return t[n]?r(i,t[n],o):e&&e[n]?e[n]:u};return e&&e.a&&t.o?function(e){var n=r(e,t.o,Ct);return Vt.recomposeSelf(n,o("r",e,F,0)+n.a,o("k",e,D),o("s",e,D),o("t",e,D)).toString()}:function(t){return Vt.recomposeSelf(o("o",t,Ft,null),o("r",t,F,0),o("k",t,D),o("s",t,D),o("t",t,D)).toString()}},"#filter":function(t,e,n,r,i,o,u,a){if(!e.items||!t||!t.length)return null;var l=function(t,e){var n=(t=t.map((function(t){return t&&ee[t[0]]?(e.getElementById(t[1]),ee[t[0]](e.getElementById(t[1]),t[1],e)):null}))).length;return function(e){for(var r=0;r<n;r++)t[r]&&t[r](e[r].value)}}(e.items,a);return l?(t=function(t,e){return t.map((function(t){return t.e=e(t.e),t}))}(t,r),function(e){l(n(e,t,te))}):null},"#line":zt,points:{f:vt,i:Y},d:qt,r:Yt,"#size":mt,"#radius":pt,_:function(t,e){if(Array.isArray(t))for(var n=0;n<t.length;n++)this[t[n]]=e;else this[t]=e}},oe={currentTime:"offset",duration:"duration",hasEnded:function(){return this.reachedToEnd()},isAlternate:"alternate",isPlaying:"_running",isRollingBack:"_rollingBack",iterations:"iterations",state:function(t,e){return e.isPlaying?e.isRollingBack?"rollback":"playing":e.hasEnded?"ended":"paused"},totalTime:"maxFiniteDuration"},ue={destruct:"destruct",pause:"pause",play:function(t,e){return ae(t,e.hasEnded?"restart":"play",e)},restart:"restart",reverse:function(t,e){return ae(t,"reverse",e,[!0])},seek:"seek",seekBy:"seekBy",seekTo:"seekTo",stop:"stop",toggle:"toggle"};function ae(t,e,n){var r=arguments.length>3&&void 0!==arguments[3]?arguments[3]:[];return function(){var i,o=Array.prototype.slice.call(arguments);return o.unshift.apply(o,v(r)),(i=t[e]).call.apply(i,[t].concat(v(o))),n}}var le=function t(e){r(this,t);var n={},i=["on","off"],o={get:function(t,e,r){return oe[e]?"function"==typeof oe[e]?oe[e].call(t,t,r):t[oe[e]]:ue[e]?"function"==typeof ue[e]?ue[e].call(t,t,r):ae(t,ue[e],r):-1!==i.indexOf(e)?n[e]:"ready"===e?function(t){return t&&t.call(r,r),r}:void 0},set:function(t,e,r){return-1!==i.indexOf(e)&&(n[e]=r)},ownKeys:function(t){return Object.keys(oe)},has:function(t,e){return void 0!==oe[e]}};if("function"==typeof Proxy)return new Proxy(e,o);var u=Object.keys(oe).concat(Object.keys(ue)).concat(i),a={};return u.forEach((function(t){var n={enumerable:!1,configurable:!1,get:function(){return o.get(e,t,a)}};-1!==i.indexOf(t)&&(n.set=function(n){return o.set(e,t,n)}),Object.defineProperty(a,t,n)})),a};function se(t){t||(t=this);var e={};this.on=function(t,n){var r=arguments.length>2&&void 0!==arguments[2]&&arguments[2];return"function"==typeof n&&(t.split(/[, ]+/g).forEach((function(t){return e[t]=e[t]||[],r?e[t].unshift(n):e[t].push(n)})),!0)},this.off=function(t,n){for(var r in e)if(e.hasOwnProperty(r)&&r.substr(0,t.length)===t)if(n)for(var i=0;i<e[r].length;i++)e[r][i]===n&&(e[r][i]=null);else e[r]=null},this.trigger=function(){var n,r=Array.prototype.slice.call(arguments),i=r[0],o=r.slice(1);t:for(var u in e)if(e.hasOwnProperty(u)&&e[u]&&(u===i||u.substr(0,i.length+1)===i+"."))for(var a=0;a<e[u].length;a++)if(e[u][a]&&!1===(n=e[u][a].apply(t,o)))break t;return n}}var fe=!0,ce=function(t){!function(t,e){if("function"!=typeof e&&null!==e)throw new TypeError("Super expression must either be null or a function");t.prototype=Object.create(e&&e.prototype,{constructor:{value:t,writable:!0,configurable:!0}}),e&&l(t,e)}(u,t);var e,n,i=(e=u,n=s(),function(){var t,r=a(e);if(n){var i=a(this).constructor;t=Reflect.construct(r,arguments,i)}else t=r.apply(this,arguments);return c(this,t)});function u(t,e){var n,o=arguments.length>2&&void 0!==arguments[2]?arguments[2]:{};return r(this,u),(n=i.call(this,t,e,o))._handlers=[],n}return o(u,[{key:"_adjustOffset",value:function(){var t=arguments.length>0&&void 0!==arguments[0]&&arguments[0],e=this.alternate?2*this.duration:this.duration;if(t){if(!this._rollingBack&&0===this.offset)return void(this.offset=e);this._rollingBack&&(this.offset,this.maxFiniteDuration)}!this._rollingBack||this.rollbackStartOffset<=this.duration?0!==this.iterations&&(this.offset=Math.min(this.offset,this.maxFiniteDuration)):(this.offset=this.rollbackStartOffset-(this.rollbackStartOffset-this.offset)%e,this.rollbackStartOffset=0)}},{key:"reverse",value:function(){var t=arguments.length>0&&void 0!==arguments[0]&&arguments[0];if(!this._running)return this._adjustOffset(t),this._rollingBack=!this._rollingBack,t&&this.play(!1),void this.trigger("reverse",this.offset);this.pause(!1,!1),this._adjustOffset(),this._rollingBack=!this._rollingBack,this.play(!1),this.trigger("reverse",this.offset)}},{key:"play",value:function(){var t=arguments.length>0&&void 0!==arguments[0]?arguments[0]:fe,e=h(a(u.prototype),"play",this).call(this);return t===fe&&this.trigger("play",this.offset),e}},{key:"pause",value:function(){var t=arguments.length>0&&void 0!==arguments[0]&&arguments[0],e=arguments.length>1&&void 0!==arguments[1]?arguments[1]:fe,n=h(a(u.prototype),"pause",this).call(this);return e===fe&&this.trigger(t?"end":"pause",this.offset),n}},{key:"restart",value:function(){var t=h(a(u.prototype),"restart",this).call(this,!1);return this.trigger("restart",this.offset),t}},{key:"stop",value:function(){var t=arguments.length>0&&void 0!==arguments[0]?arguments[0]:fe,e=h(a(u.prototype),"stop",this).call(this);return t===fe&&this.trigger("stop",this.offset),e}},{key:"_apply",value:function(t){var e=arguments.length>2&&void 0!==arguments[2]?arguments[2]:fe,n=h(a(u.prototype),"_apply",this).call(this,t);return e===fe&&this.trigger("keyframe",t),n}},{key:"seekTo",value:function(t){var e,n,r,i=this._running;i&&this.pause(!1,!1),this.offset=this.iterations>0?(e=t,n=0,r=this.maxFiniteDuration,e<n?n:e>r?r:e):Math.max(t,0),this._apply(this.offset),i&&this.play(!1)}},{key:"seek",value:function(t){return this.seekTo(Math.round(t/100*this.maxFiniteDuration))}},{key:"seekBy",value:function(t){return this.seekTo(this.offset+t)}},{key:"toggle",value:function(){return this._running?this.pause():this.reachedToEnd()?this.restart():this.play()}},{key:"destruct",value:function(){var t=this;this.stop(),this._handlers.forEach((function(t){t.element?t.element.removeEventListener(t.event,t.handler):t.callback&&t.callback.call&&t.callback.call()}));var e=function(){},n=Object.getOwnPropertyNames(Object.getPrototypeOf(this));n.push.apply(n,v(Object.getOwnPropertyNames(this))),n.forEach((function(n){"function"==typeof t[n]?t[n]=e:delete t[n]}))}}],[{key:"build",value:function(t){var e=h(a(u),"build",this).call(this,t,ie);if(!e)return null;var n=e.el,r=e.options,i=e.player,o=new le(i),l=new se(o);o.on=l.on,o.off=l.off,i.trigger=l.trigger;var s=n.svgatorPlayer&&n.svgatorPlayer.ready&&n.svgatorPlayer.ready.call&&n.svgatorPlayer.ready.call();n.svgatorPlayer=o,function(t,e,n){if("click"===n.start){var r=function(){switch(n.click){case"freeze":return!t._running&&t.reachedToEnd()?t.restart():t.toggle();case"restart":return t.offset>0?t.restart():t.play();case"reverse":return t._running?t.reverse():t.reachedToEnd()?1===t.fill?t.reverse(!0):t.restart():t.play();case"none":default:if(t._running)return;return t.reachedToEnd()?t.restart():t.play()}};return t._handlers.push({element:e,event:"click",handler:r}),void e.addEventListener("click",r)}if("hover"===n.start){var i=function(){return t.reachedToEnd()?t.restart():t._rollingBack?t.reverse():t.play()};t._handlers.push({element:e,event:"mouseenter",handler:i}),e.addEventListener("mouseenter",i);var o=function(){switch(n.hover){case"freeze":return t.pause();case"reset":return t.stop();case"reverse":if(t.reverse(),t._running)return;return t.play();case"none":default:return}};return t._handlers.push({element:e,event:"mouseleave",handler:o}),void e.addEventListener("mouseleave",o)}if("scroll"===n.start){var u=new ct(e,n.scroll||25,(function(e){e?t.reachedToEnd()?t.restart():t.play():t.pause()}));return void t._handlers.push({callback:function(){return u.destruct()}})}if("programmatic"===n.start)return;t.play()}(i,n,r),function(t,e,n){var r;"function"==typeof Event?r=new Event("ready"):(r=document.createEvent("Event")).initEvent("ready",!0,!0);if(t.dispatchEvent(r),!n||!n.length)return;n.forEach((function(t){return e.ready(t)}))}(n,n.svgatorPlayer,s)}}]),u}(st);return ce.init(),ce}));
(function(s,i,o,w,a,b){(a=document.getElementById(i.root)).svgatorPlayer={ready:(function(a){b=[];return function(c){return c?(b.push(c),a.svgatorPlayer):b}})(a)};w[o]=w[o]||{};w[o][s]=w[o][s]||[];w[o][s].push(i);})('91c80d77',{"root":"ewZLakgqEcQ1","animations":[{"elements":{"ewZLakgqEcQ2":{"transform":{"data":{"s":{"x":1.063238,"y":1.063239},"t":{"x":-104.352886,"y":-81.049587}},"keys":{"o":[{"t":0,"v":{"x":175.736734,"y":102.016262,"type":"corner"},"e":[0.42,0,0.58,1]},{"t":300,"v":{"x":117.736734,"y":105.016262,"type":"corner"},"e":[0.42,0,0.58,1]},{"t":500,"v":{"x":159.736734,"y":104.016262,"type":"corner"},"e":[0.42,0,0.58,1]},{"t":700,"v":{"x":137.736734,"y":105.016262,"type":"corner"},"e":[0.445,0.05,0.55,0.95]}],"r":[{"t":0,"v":0},{"t":200,"v":0.797542}]}}},"ewZLakgqEcQ5":{"transform":{"data":{"s":{"x":1.033687,"y":1.033684},"t":{"x":-100.070332,"y":-77.14928}},"keys":{"o":[{"t":0,"v":{"x":247.778822,"y":126.790587,"type":"corner"},"e":[0.42,0,0.58,1]},{"t":300,"v":{"x":208.778822,"y":127.790587,"type":"corner"},"e":[0.42,0,0.58,1]},{"t":500,"v":{"x":236.778822,"y":128.790587,"type":"corner"},"e":[0.42,0,0.58,1]},{"t":700,"v":{"x":221.778822,"y":129.790587,"type":"corner"},"e":[0.445,0.05,0.55,0.95]}]}}},"ewZLakgqEcQ8":{"transform":{"data":{"r":0.589352,"s":{"x":1.03214,"y":1.032142},"t":{"x":-96.399189,"y":-65.555477}},"keys":{"o":[{"t":0,"v":{"x":318.664233,"y":111.665165,"type":"corner"},"e":[0.42,0,0.58,1]},{"t":300,"v":{"x":298.664233,"y":112.665165,"type":"corner"},"e":[0.42,0,0.58,1]},{"t":500,"v":{"x":313.664233,"y":113.665165,"type":"corner"},"e":[0.42,0,0.58,1]},{"t":700,"v":{"x":306.664233,"y":114.665165,"type":"corner"},"e":[0.39,0.575,0.565,1]}]}}},"ewZLakgqEcQ11":{"transform":{"data":{"s":{"x":1.041681,"y":1.041681},"t":{"x":-96.351234,"y":-66.390945}},"keys":{"o":[{"t":0,"v":{"x":385.024238,"y":109.7343,"type":"corner"},"e":[0.42,0,0.58,1]},{"t":300,"v":{"x":385.024238,"y":109.7343,"type":"corner"},"e":[0.42,0,0.58,1]},{"t":600,"v":{"x":385.024238,"y":110.7343,"type":"corner"}}]}}},"ewZLakgqEcQ14":{"transform":{"data":{"r":0.453222,"s":{"x":1.023876,"y":1.023876},"t":{"x":-96.526699,"y":-65.774858}},"keys":{"o":[{"t":0,"v":{"x":446.886856,"y":107.664581,"type":"corner"},"e":[0.42,0,0.58,1]},{"t":300,"v":{"x":466.886856,"y":107.664581,"type":"corner"},"e":[0.42,0,0.58,1]},{"t":500,"v":{"x":452.886856,"y":109.664581,"type":"corner"},"e":[0.42,0,0.58,1]},{"t":700,"v":{"x":461.886856,"y":109.664581,"type":"corner"},"e":[0.39,0.575,0.565,1]}]}}},"ewZLakgqEcQ17":{"transform":{"data":{"r":1.034931,"s":{"x":1.028577,"y":1.028577},"t":{"x":-96.99168,"y":-81.810054}},"keys":{"o":[{"t":0,"v":{"x":513.877596,"y":91.417175,"type":"corner"},"e":[0.42,0,0.58,1]},{"t":300,"v":{"x":552.877596,"y":90.417175,"type":"corner"},"e":[0.42,0,0.58,1]},{"t":500,"v":{"x":524.877596,"y":92.417175,"type":"corner"},"e":[0.42,0,0.58,1]},{"t":700,"v":{"x":540.877596,"y":92.417175,"type":"corner"},"e":[0.39,0.575,0.565,1]}]}}},"ewZLakgqEcQ20":{"transform":{"data":{"r":0.464515,"s":{"x":1.041478,"y":1.041477},"t":{"x":-76.948049,"y":-79.483789}},"keys":{"o":[{"t":0,"v":{"x":556.730082,"y":88.207406,"type":"corner"},"e":[0.42,0,0.58,1]},{"t":300,"v":{"x":614.730082,"y":87.207406,"type":"corner"},"e":[0.42,0,0.58,1]},{"t":500,"v":{"x":572.730082,"y":89.207406,"type":"corner"},"e":[0.42,0,0.58,1]},{"t":700,"v":{"x":596.730082,"y":89.207406,"type":"corner"},"e":[0.39,0.575,0.565,1]}]}}},"ewZLakgqEcQ23":{"opacity":[{"t":600,"v":0},{"t":1500,"v":1}]}},"s":"MDCA1Mzk3M2U4MBDkxOGU3ZDkwKODU4YjhhVTNFlNTY0ZTRjNGKM0YzQ4M2U4MKDg1OGU4MTdmOOTA4NThiOGEVzZTU2NGQ0ODHNlODU5MDgxOBGU3ZDkwODU4LYjhhOGYzZTUR2NGQ0ODNlODGI4NTg4ODgzZMTU2NGQ0ODNlYN2Q4ODkwODEV4ZUo4YVA3ZDYkwODEzZTU2UUDgyN2RQODg4HZjgxNDgzZThTmOGNNODE4MTCgwM2VFNTY0ZUEZSOTk/"}],"options":"MDOAxMDgyMjk3YHTdiNjg3OTdiYMjk0MUMyOTcKzNzY2OFk2YjGI5ODQ/"},'__SVGATOR_PLAYER__',window)]]></script></svg>